<svg width="24" height="24" viewBox="0 0 24 24" fill="none" xmlns="http://www.w3.org/2000/svg">
<g id="icons/emoji">
<path id="Ellipse 126" d="M22 12C22 17.5228 17.5228 22 12 22C6.47715 22 2 17.5228 2 12C2 6.47715 6.47715 2 12 2C17.5228 2 22 6.47715 22 12Z" fill="white"/>
<path id="Ellipse 126 (Stroke)" fill-rule="evenodd" clip-rule="evenodd" d="M12 20C16.4183 20 20 16.4183 20 12C20 7.58172 16.4183 4 12 4C7.58172 4 4 7.58172 4 12C4 16.4183 7.58172 20 12 20ZM12 22C17.5228 22 22 17.5228 22 12C22 6.47715 17.5228 2 12 2C6.47715 2 2 6.47715 2 12C2 17.5228 6.47715 22 12 22Z" fill="#A6A6A6"/>
<rect id="Rectangle 31" x="9" y="9.5" width="1" height="1.5" rx="0.5" fill="#A6A6A6"/>
<rect id="Rectangle 32" x="14" y="9.5" width="1" height="1.5" rx="0.5" fill="#A6A6A6"/>
<path id="Vector 123" d="M11.6159 14.5391L10.1834 12.8201C9.91202 12.4944 10.1436 12 10.5675 12H13.4325C13.8564 12 14.088 12.4944 13.8166 12.8201L12.3841 14.5391C12.1842 14.7789 11.8158 14.7789 11.6159 14.5391Z" fill="#A6A6A6"/>
</g>
</svg>
