<svg width="24" height="24" viewBox="0 0 24 24" fill="none" xmlns="http://www.w3.org/2000/svg">
<g clip-path="url(#clip0_1749_12500)">
<path d="M4 3H20L22 7V20C22 20.2652 21.8946 20.5196 21.7071 20.7071C21.5196 20.8946 21.2652 21 21 21H3C2.73478 21 2.48043 20.8946 2.29289 20.7071C2.10536 20.5196 2 20.2652 2 20V7.004L4 3ZM20 9H4V19H20V9ZM19.764 7L18.764 5H5.237L4.237 7H19.764ZM13 14H16L12 18L8 14H11V10H13V14Z" fill="#555555"/>
</g>
<defs>
<clipPath id="clip0_1749_12500">
<rect width="24" height="24" fill="white"/>
</clipPath>
</defs>
</svg>
