<svg width="16" height="16" viewBox="0 0 17 18" fill="none" xmlns="http://www.w3.org/2000/svg">
<path d="M8.50018 4.09138C10.0024 4.09138 11.0157 4.74027 11.5935 5.28249L13.8513 3.07805C12.4646 1.78916 10.6602 0.998047 8.50018 0.998047C5.37129 0.998047 2.66907 2.7936 1.35352 5.40694L3.94018 7.41583C4.58907 5.48694 6.38463 4.09138 8.50018 4.09138Z" fill="#EA4335"/>
<path d="M16.18 9.17901C16.18 8.52124 16.1267 8.04123 16.0111 7.54346H8.5V10.5123H12.9089C12.82 11.2501 12.34 12.3612 11.2733 13.1079L13.7978 15.0635C15.3089 13.6679 16.18 11.6146 16.18 9.17901Z" fill="#4285F4"/>
<path d="M3.94889 10.5801C3.78 10.0823 3.68222 9.54896 3.68222 8.99785C3.68222 8.44674 3.78 7.9134 3.94 7.41563L1.35333 5.40674C0.811111 6.49118 0.5 7.70896 0.5 8.99785C0.5 10.2867 0.811111 11.5045 1.35333 12.589L3.94889 10.5801Z" fill="#FBBC05"/>
<path d="M8.49911 17.0018C10.6591 17.0018 12.4724 16.2907 13.7969 15.064L11.2724 13.1084C10.5969 13.5795 9.69022 13.9084 8.49911 13.9084C6.38355 13.9084 4.588 12.5129 3.948 10.584L1.36133 12.5929C2.67688 15.2062 5.37022 17.0018 8.49911 17.0018Z" fill="#34A853"/>
</svg>
