<svg width="24" height="24" viewBox="0 0 24 24" fill="none" xmlns="http://www.w3.org/2000/svg">
<g clip-path="url(#clip0_1739_12255)">
<path d="M11.9987 3C17.3907 3 21.8767 6.88 22.8177 12C21.8777 17.12 17.3907 21 11.9987 21C6.60669 21 2.12069 17.12 1.17969 12C2.11969 6.88 6.60669 3 11.9987 3ZM11.9987 19C14.0382 18.9996 16.0171 18.3068 17.6115 17.0352C19.206 15.7635 20.3216 13.9883 20.7757 12C20.3199 10.0133 19.2036 8.24 17.6093 6.97003C16.015 5.70005 14.037 5.00853 11.9987 5.00853C9.96038 5.00853 7.98238 5.70005 6.38806 6.97003C4.79375 8.24 3.67745 10.0133 3.22169 12C3.67578 13.9883 4.79136 15.7635 6.38583 17.0352C7.9803 18.3068 9.95922 18.9996 11.9987 19ZM11.9987 16.5C10.8052 16.5 9.66062 16.0259 8.81671 15.182C7.97279 14.3381 7.49869 13.1935 7.49869 12C7.49869 10.8065 7.97279 9.66193 8.81671 8.81802C9.66062 7.97411 10.8052 7.5 11.9987 7.5C13.1922 7.5 14.3368 7.97411 15.1807 8.81802C16.0246 9.66193 16.4987 10.8065 16.4987 12C16.4987 13.1935 16.0246 14.3381 15.1807 15.182C14.3368 16.0259 13.1922 16.5 11.9987 16.5ZM11.9987 14.5C12.6617 14.5 13.2976 14.2366 13.7665 13.7678C14.2353 13.2989 14.4987 12.663 14.4987 12C14.4987 11.337 14.2353 10.7011 13.7665 10.2322C13.2976 9.76339 12.6617 9.5 11.9987 9.5C11.3356 9.5 10.6998 9.76339 10.2309 10.2322C9.76208 10.7011 9.49869 11.337 9.49869 12C9.49869 12.663 9.76208 13.2989 10.2309 13.7678C10.6998 14.2366 11.3356 14.5 11.9987 14.5Z" fill="#A6A6A6"/>
</g>
<defs>
<clipPath id="clip0_1739_12255">
<rect width="24" height="24" fill="white"/>
</clipPath>
</defs>
</svg>
