<svg width="17" height="16" viewBox="0 0 17 16" fill="none" xmlns="http://www.w3.org/2000/svg">
<path d="M8.49429 1C4.06888 1 0.5 3.85507 0.5 7.32117C0.5 9.57099 1.98465 11.541 4.21164 12.6659L3.45789 15.4811C3.44368 15.5233 3.44149 15.5685 3.45158 15.6119C3.46166 15.6553 3.48362 15.695 3.51499 15.7266C3.56073 15.7669 3.61959 15.7892 3.68059 15.7894C3.73116 15.7853 3.77914 15.7653 3.81763 15.7323L7.06103 13.5453C7.53979 13.6114 8.02241 13.6457 8.50571 13.6481C12.9254 13.6481 16.5 10.793 16.5 7.32117C16.5 3.84936 12.914 1 8.49429 1Z" fill="#191600"/>
</svg>
