<svg width="48" height="48" viewBox="0 0 48 48" fill="none" xmlns="http://www.w3.org/2000/svg">
<g id="icons/emoji">
<circle id="Ellipse 126" cx="24" cy="24" r="20" fill="#57BCF5"/>
<rect id="Rectangle 31" x="19.3516" y="18.7344" width="2" height="3" rx="1" transform="rotate(45 19.3516 18.7344)" fill="black"/>
<rect id="Rectangle 32" x="27.2344" y="20.1484" width="2" height="3" rx="1" transform="rotate(-45 27.2344 20.1484)" fill="black"/>
<g id="Vector 124">
<path d="M32.4208 27.8916C30.2047 28.3948 28.9584 25.7147 30.1635 22.9765C30.3755 22.4948 30.9666 22.3408 31.408 22.6274C35.1059 25.0279 33.79 27.5808 32.4208 27.8916Z" fill="#07A4FD"/>
<path d="M32.4208 27.8916C30.2047 28.3948 28.9584 25.7147 30.1635 22.9765C30.3755 22.4948 30.9666 22.3408 31.408 22.6274C35.1059 25.0279 33.79 27.5808 32.4208 27.8916Z" fill="white"/>
</g>
<g id="Vector 125">
<path d="M16.6346 25.7035C17.9934 26.012 18.7916 24.4803 18.2217 22.8116C18.0516 22.3136 17.4483 22.1557 17.0228 22.4655C14.9561 23.9701 15.7793 25.5093 16.6346 25.7035Z" fill="#07A4FD"/>
<path d="M16.6346 25.7035C17.9934 26.012 18.7916 24.4803 18.2217 22.8116C18.0516 22.3136 17.4483 22.1557 17.0228 22.4655C14.9561 23.9701 15.7793 25.5093 16.6346 25.7035Z" fill="white"/>
</g>
<g id="Vector 126">
<path d="M36.9606 30.0328C35.7072 30.6418 34.5821 29.3313 34.7583 27.5768C34.8109 27.0532 35.3626 26.7625 35.8473 26.9675C38.2017 27.9636 37.7493 29.6495 36.9606 30.0328Z" fill="#07A4FD"/>
<path d="M36.9606 30.0328C35.7072 30.6418 34.5821 29.3313 34.7583 27.5768C34.8109 27.0532 35.3626 26.7625 35.8473 26.9675C38.2017 27.9636 37.7493 29.6495 36.9606 30.0328Z" fill="white"/>
</g>
<path id="Polygon 1" d="M22.634 24.5C23.0189 23.8333 23.9811 23.8333 24.366 24.5L24.799 25.25C25.1839 25.9167 24.7028 26.75 23.933 26.75H23.067C22.2972 26.75 21.8161 25.9167 22.201 25.25L22.634 24.5Z" fill="black"/>
</g>
</svg>
