<svg width="25" height="50" viewBox="0 0 25 50" fill="none" xmlns="http://www.w3.org/2000/svg">
<g clip-path="url(#clip0_282_5382)">
<path d="M24.8335 37.2611C24.6129 37.0425 24.2537 37.0425 24.033 37.2611L13.1058 48.0861V0.560444C13.1058 0.2522 12.8512 0 12.54 0C12.2289 0 11.9743 0.2522 11.9743 0.560444V48.0861L0.965023 37.1827C0.744384 36.9641 0.38514 36.9641 0.164502 37.1827C-0.0561361 37.4012 -0.0561361 37.7571 0.164502 37.9757L12.1384 49.8347C12.1638 49.8599 12.1949 49.8851 12.2261 49.9047C12.2402 49.9131 12.2543 49.9187 12.2685 49.9271C12.2855 49.9384 12.3053 49.9468 12.3251 49.9552C12.3449 49.9636 12.3618 49.9664 12.3816 49.972C12.3986 49.9776 12.4127 49.9832 12.4297 49.986C12.4665 49.9944 12.5033 49.9972 12.54 49.9972C12.5768 49.9972 12.6136 49.9944 12.6504 49.986C12.6673 49.9832 12.6843 49.9776 12.6984 49.972C12.7182 49.9664 12.7352 49.9608 12.755 49.9552C12.7748 49.9468 12.7918 49.9356 12.8116 49.9271C12.8257 49.9187 12.8399 49.9131 12.854 49.9047C12.8851 49.8851 12.9134 49.8599 12.9417 49.8347L24.8364 38.0513C25.0542 37.8328 25.0542 37.4797 24.8335 37.2611Z" fill="#937CF1"/>
</g>
<defs>
<clipPath id="clip0_282_5382">
<rect width="25" height="50" fill="white"/>
</clipPath>
</defs>
</svg>
