<svg width="308" height="250" viewBox="0 0 308 250" fill="none" xmlns="http://www.w3.org/2000/svg">
<ellipse cx="154" cy="150" rx="109" ry="12" fill="#DBDBDB"/>
<path fill-rule="evenodd" clip-rule="evenodd" d="M217 45.4545C217 56.7343 212.891 67.0544 206.089 75C212.891 82.9456 217 93.2657 217 104.545C217 129.649 196.649 150 171.545 150C160.266 150 149.946 145.891 142 139.089C134.054 145.891 123.734 150 112.455 150C87.3507 150 67 129.649 67 104.545C67 93.2657 71.1086 82.9456 77.911 75C71.1086 67.0544 67 56.7343 67 45.4545C67 20.3507 87.3507 0 112.455 0C123.734 0 134.054 4.10863 142 10.911C149.946 4.10863 160.266 0 171.545 0C196.649 0 217 20.3507 217 45.4545Z" fill="#29E0BF"/>
<path d="M126.091 68.1819C126.091 66.9267 127.108 65.9092 128.364 65.9092V65.9092C129.619 65.9092 130.636 66.9267 130.636 68.1819V70.4546C130.636 71.7098 129.619 72.7274 128.364 72.7274V72.7274C127.108 72.7274 126.091 71.7098 126.091 70.4546V68.1819Z" fill="black"/>
<path fill-rule="evenodd" clip-rule="evenodd" d="M129.514 80.5353C130.222 79.9154 131.299 79.9872 131.919 80.6956C133.035 81.9706 135.199 83.5459 137.933 84.0002C140.575 84.4392 143.947 83.8673 147.686 80.5441C148.389 79.9187 149.467 79.982 150.092 80.6857C150.717 81.3893 150.654 82.4667 149.95 83.0921C145.507 87.0417 141.115 87.9848 137.374 87.3632C133.725 86.7569 130.889 84.6959 129.353 82.9405C128.733 82.2321 128.805 81.1552 129.514 80.5353Z" fill="black"/>
<path fill-rule="evenodd" clip-rule="evenodd" d="M150.683 69.7645C150.503 69.9145 150.345 70.1001 150.236 70.2635C149.714 71.0468 148.656 71.2585 147.872 70.7363C147.089 70.2141 146.878 69.1558 147.4 68.3725C147.89 67.6365 148.883 66.5566 150.289 66.2132C151.05 66.0274 151.896 66.0713 152.729 66.4704C153.535 66.8563 154.212 67.5177 154.782 68.3725C155.304 69.1558 155.092 70.2141 154.309 70.7363C153.526 71.2585 152.467 71.0468 151.945 70.2635C151.606 69.7547 151.355 69.5922 151.256 69.5449C151.185 69.5107 151.151 69.512 151.097 69.525C151.012 69.5458 150.867 69.6116 150.683 69.7645Z" fill="black"/>
<path opacity="0.2" d="M72 110C78.3333 116.167 82 138.5 83 146C96.5 135.5 94 112.5 72 110Z" fill="black"/>
<path opacity="0.2" d="M206.5 110.5C196 112.5 183 125.5 195.5 142.5C193.167 136.667 192.5 122.5 206.5 110.5Z" fill="black"/>
<path opacity="0.2" d="M213 88C209.833 91.1667 204.4 99.2 206 110C203.833 105.167 202.5 95.5 213 88Z" fill="black"/>
<path fill-rule="evenodd" clip-rule="evenodd" d="M243.686 111.145C244.535 108.926 245 106.517 245 104C245 92.9543 236.046 84 225 84C213.954 84 205 92.9543 205 104C205 106.313 205.393 108.534 206.115 110.601C197.431 112.781 191 120.639 191 130C191 141.046 199.954 150 211 150C215.963 150 220.504 148.192 224 145.199C227.496 148.192 232.037 150 237 150C248.046 150 257 141.046 257 130C257 121.299 251.444 113.896 243.686 111.145Z" fill="#937CF1"/>
<path d="M217 114C217 113.448 217.448 113 218 113V113C218.552 113 219 113.448 219 114V115C219 115.552 218.552 116 218 116V116C217.448 116 217 115.552 217 115V114Z" fill="black"/>
<path d="M227 114C227 113.448 227.448 113 228 113V113C228.552 113 229 113.448 229 114V115C229 115.552 228.552 116 228 116V116C227.448 116 227 115.552 227 115V114Z" fill="black"/>
<path fill-rule="evenodd" clip-rule="evenodd" d="M218.506 119.436C218.818 119.163 219.292 119.194 219.564 119.506C220.055 120.067 221.007 120.76 222.21 120.96C223.373 121.153 224.857 120.902 226.502 119.439C226.811 119.164 227.285 119.192 227.561 119.502C227.836 119.811 227.808 120.285 227.498 120.561C225.543 122.298 223.61 122.713 221.965 122.44C220.359 122.173 219.111 121.266 218.436 120.494C218.163 120.182 218.194 119.708 218.506 119.436Z" fill="black"/>
<circle cx="71" cy="130" r="20" fill="#57BCF5"/>
<rect x="62" y="125" width="2" height="3" rx="1" fill="black"/>
<rect x="72" y="125" width="2" height="3" rx="1" fill="black"/>
<path d="M66.634 130.5C67.0189 129.833 67.9811 129.833 68.366 130.5L68.799 131.25C69.1839 131.917 68.7028 132.75 67.933 132.75H67.067C66.2972 132.75 65.8161 131.917 66.201 131.25L66.634 130.5Z" fill="black"/>
<path d="M7.47754 205.01C8.19238 205.016 8.83105 205.218 9.39355 205.616C9.96191 206.009 10.416 206.568 10.7559 207.295H14.8604V203.797H16.2314V219.459H14.8604V213.395H10.8525C10.5244 214.191 10.0674 214.81 9.48145 215.249C8.89551 215.683 8.22754 215.896 7.47754 215.891C6.70996 215.891 6.02734 215.671 5.42969 215.231C4.83789 214.786 4.37793 214.153 4.0498 213.333C3.72168 212.513 3.55762 211.555 3.55762 210.459C3.55762 209.369 3.72168 208.414 4.0498 207.594C4.37793 206.768 4.83789 206.132 5.42969 205.687C6.02734 205.235 6.70996 205.01 7.47754 205.01ZM4.87598 210.459C4.87598 211.297 4.98438 212.035 5.20117 212.674C5.42383 213.307 5.73145 213.796 6.12402 214.142C6.5166 214.487 6.96777 214.66 7.47754 214.66C7.98145 214.66 8.42969 214.487 8.82227 214.142C9.2207 213.796 9.52832 213.304 9.74512 212.665C9.96777 212.026 10.0791 211.291 10.0791 210.459C10.0791 209.627 9.96777 208.892 9.74512 208.253C9.52832 207.614 9.2207 207.119 8.82227 206.768C8.42969 206.416 7.98145 206.24 7.47754 206.24C6.96777 206.24 6.5166 206.416 6.12402 206.768C5.73145 207.119 5.42383 207.614 5.20117 208.253C4.98438 208.886 4.87598 209.621 4.87598 210.459ZM11.1514 208.455C11.3037 209.076 11.3799 209.744 11.3799 210.459C11.3799 211.098 11.3213 211.695 11.2041 212.252H14.8604V208.455H11.1514ZM31.7705 219.459H30.3994V210.969H27.3584V209.809H30.3994V203.797H31.7705V219.459ZM19.3779 205.256H26.4092V210.723H20.8018V214.52C22.2607 214.52 23.5088 214.484 24.5459 214.414C25.5889 214.344 26.6494 214.209 27.7275 214.01L27.833 215.17C26.7197 215.369 25.6182 215.507 24.5283 215.583C23.4443 215.653 22.1436 215.691 20.626 215.697H19.4307V209.58H25.0732V206.398H19.3779V205.256ZM48.6807 213.201H42.3174V216.26H40.9463V213.201H34.3721V212.076H48.6807V213.201ZM36.2002 214.818H37.5713V217.93H47.0811V219.09H36.2002V214.818ZM36.2881 204.307H37.6592V206.311H45.3936V204.307H46.7646V210.547H36.2881V204.307ZM45.3936 209.422V207.365H37.6592V209.422H45.3936ZM57.0654 204.078C58.2197 204.078 59.21 204.184 60.0361 204.395C60.8623 204.6 61.4922 204.904 61.9258 205.309C62.3652 205.707 62.585 206.193 62.585 206.768C62.585 207.354 62.3652 207.852 61.9258 208.262C61.4922 208.672 60.8623 208.982 60.0361 209.193C59.2158 209.398 58.2256 209.504 57.0654 209.51C55.8994 209.504 54.9033 209.398 54.0771 209.193C53.251 208.982 52.6182 208.672 52.1787 208.262C51.7451 207.852 51.5283 207.354 51.5283 206.768C51.5283 206.193 51.7451 205.707 52.1787 205.309C52.6182 204.904 53.251 204.6 54.0771 204.395C54.9092 204.184 55.9053 204.078 57.0654 204.078ZM49.9463 210.564H64.1846V211.689H49.9463V210.564ZM51.6689 213.043H62.3564V216.541H53.0752V218.158H62.8311V219.248H51.7041V215.521H61.0029V214.098H51.6689V213.043ZM52.9697 206.768C52.9639 207.307 53.3184 207.723 54.0332 208.016C54.748 208.309 55.7588 208.455 57.0654 208.455C58.3662 208.455 59.374 208.312 60.0889 208.024C60.8096 207.731 61.1729 207.312 61.1787 206.768C61.1787 206.428 61.0146 206.135 60.6865 205.889C60.3643 205.643 59.8926 205.452 59.2715 205.317C58.6562 205.183 57.9209 205.115 57.0654 205.115C56.2041 205.115 55.4658 205.183 54.8506 205.317C54.2354 205.452 53.7666 205.643 53.4443 205.889C53.1221 206.135 52.9639 206.428 52.9697 206.768ZM82.958 211.76H81.5869V208.438H78.3262C78.2324 209.035 78.001 209.562 77.6318 210.02C77.2686 210.471 76.7998 210.822 76.2256 211.074C75.6572 211.32 75.0244 211.443 74.3271 211.443C73.5479 211.443 72.8477 211.294 72.2266 210.995C71.6113 210.69 71.1309 210.269 70.7852 209.729C70.4395 209.185 70.2666 208.566 70.2666 207.875C70.2666 207.189 70.4395 206.58 70.7852 206.047C71.1309 205.514 71.6113 205.101 72.2266 204.808C72.8477 204.509 73.5479 204.359 74.3271 204.359C75.0186 204.359 75.6484 204.479 76.2168 204.72C76.7852 204.96 77.251 205.303 77.6143 205.748C77.9834 206.188 78.2178 206.697 78.3174 207.277H81.5869V203.797H82.958V211.76ZM71.585 207.875C71.585 208.344 71.7021 208.763 71.9365 209.132C72.1709 209.501 72.4961 209.788 72.9121 209.993C73.3281 210.198 73.7998 210.301 74.3271 210.301C74.8369 210.301 75.2969 210.198 75.707 209.993C76.123 209.788 76.4482 209.501 76.6826 209.132C76.917 208.763 77.0342 208.344 77.0342 207.875C77.0342 207.418 76.917 207.008 76.6826 206.645C76.4482 206.281 76.123 206 75.707 205.801C75.2969 205.596 74.8369 205.496 74.3271 205.502C73.7998 205.496 73.3281 205.596 72.9121 205.801C72.4961 206 72.1709 206.281 71.9365 206.645C71.7021 207.008 71.585 207.418 71.585 207.875ZM72.833 212.621H82.958V216.365H74.2393V218.105H83.5557V219.213H72.8682V215.311H81.5869V213.729H72.833V212.621ZM99.8682 213.605H85.5596V212.463H99.8682V213.605ZM87.3701 204.342H98.0225V208.191H88.7939V209.932H98.3564V211.021H87.4229V207.154H96.6338V205.449H87.3701V204.342ZM87.458 214.836H88.8467V217.93H98.3564V219.09H87.458V214.836ZM113.544 212.41H106.319V205.221H113.544V212.41ZM112.208 211.303V206.346H107.673V211.303H112.208ZM108.095 214.168H109.448V217.93H118.589V219.09H108.095V214.168ZM116.497 203.797H117.868V208.561H120.224V209.721H117.868V215.258H116.497V203.797ZM135.833 211.197H133.302V219.424H131.931V203.797H133.302V210.037H135.833V211.197ZM121.858 205.344H123.229V214.291C124.448 214.291 125.644 214.235 126.815 214.124C127.993 214.013 129.194 213.828 130.419 213.57L130.595 214.748C129.323 215.006 128.078 215.188 126.859 215.293C125.641 215.398 124.39 215.451 123.106 215.451H121.858V205.344ZM149.685 219.424H148.296V203.797H149.685V219.424ZM136.958 215.363C139.044 214.373 140.641 213.143 141.748 211.672C142.861 210.201 143.497 208.52 143.655 206.627H137.679V205.502H145.062C145.05 207.857 144.452 209.976 143.269 211.856C142.085 213.737 140.233 215.281 137.714 216.488L136.958 215.363ZM157.472 204.57C158.245 204.564 158.937 204.696 159.546 204.966C160.155 205.229 160.63 205.604 160.97 206.091C161.31 206.571 161.479 207.125 161.479 207.752C161.479 208.379 161.31 208.936 160.97 209.422C160.63 209.908 160.155 210.286 159.546 210.556C158.937 210.819 158.245 210.951 157.472 210.951C156.698 210.951 156.007 210.819 155.397 210.556C154.794 210.286 154.319 209.908 153.974 209.422C153.634 208.936 153.464 208.379 153.464 207.752C153.464 207.125 153.634 206.571 153.974 206.091C154.319 205.604 154.794 205.229 155.397 204.966C156.007 204.696 156.698 204.564 157.472 204.57ZM152.778 212.287C154.565 212.287 156.297 212.249 157.973 212.173C159.654 212.091 161.233 211.941 162.71 211.725L162.798 212.762C161.421 213.014 159.903 213.192 158.245 213.298V218.949H156.874V213.377C155.837 213.424 154.372 213.453 152.479 213.465L152.286 212.287H152.778ZM154.817 207.752C154.812 208.15 154.92 208.508 155.143 208.824C155.371 209.135 155.688 209.378 156.092 209.554C156.496 209.724 156.956 209.809 157.472 209.809C157.993 209.809 158.456 209.724 158.86 209.554C159.271 209.378 159.59 209.135 159.818 208.824C160.047 208.514 160.161 208.156 160.161 207.752C160.161 207.354 160.047 206.999 159.818 206.688C159.59 206.372 159.271 206.126 158.86 205.95C158.45 205.774 157.987 205.689 157.472 205.695C156.962 205.689 156.502 205.774 156.092 205.95C155.688 206.126 155.371 206.372 155.143 206.688C154.92 206.999 154.812 207.354 154.817 207.752ZM163.853 203.814H165.206V219.441H163.853V203.814ZM175.683 207.629H167.843V206.504H171.095V204.271H172.466V206.504H175.683V207.629ZM168.405 212.234C168.405 211.555 168.549 210.945 168.836 210.406C169.129 209.867 169.53 209.445 170.04 209.141C170.55 208.836 171.124 208.684 171.763 208.684C172.413 208.684 172.993 208.836 173.503 209.141C174.019 209.445 174.42 209.867 174.707 210.406C175 210.939 175.149 211.549 175.155 212.234C175.149 212.926 175 213.544 174.707 214.089C174.42 214.628 174.019 215.053 173.503 215.363C172.993 215.668 172.413 215.82 171.763 215.82C171.124 215.82 170.547 215.668 170.031 215.363C169.521 215.053 169.123 214.628 168.836 214.089C168.549 213.544 168.405 212.926 168.405 212.234ZM169.636 212.234C169.636 212.691 169.727 213.102 169.908 213.465C170.09 213.822 170.342 214.104 170.664 214.309C170.986 214.508 171.353 214.607 171.763 214.607C172.173 214.607 172.542 214.508 172.87 214.309C173.198 214.104 173.456 213.822 173.644 213.465C173.831 213.102 173.925 212.691 173.925 212.234C173.925 211.783 173.831 211.379 173.644 211.021C173.456 210.658 173.198 210.374 172.87 210.169C172.542 209.958 172.173 209.85 171.763 209.844C171.353 209.85 170.986 209.958 170.664 210.169C170.342 210.374 170.09 210.658 169.908 211.021C169.727 211.379 169.636 211.783 169.636 212.234ZM176.491 204.184H177.792V210.389H179.866V203.797H181.185V219.424H179.866V211.531H177.792V218.65H176.491V204.184ZM200.608 212.076H195.757V216.242H202.261V217.385H187.952V216.242H194.386V212.076H189.71V205.133H191.116V210.916H200.608V212.076ZM210.927 209.141H205.548V211.566H206.04C207.405 211.566 208.504 211.54 209.336 211.487C210.168 211.435 211.003 211.332 211.841 211.18L211.981 212.322C211.05 212.475 210.118 212.574 209.187 212.621C208.261 212.668 206.96 212.691 205.284 212.691H204.177V208.086H209.556V205.871H204.142V204.764H210.927V209.141ZM205.935 214.256H216.464V219.459H215.075V215.381H205.935V214.256ZM211.964 209.369H215.075V207.26H211.964V206.135H215.075V203.814H216.464V213.412H215.075V210.512H211.964V209.369ZM231.159 210.248H233.778V211.391H231.159V219.424H229.788V203.797H231.159V210.248ZM218.978 206.311H223.003V203.99H224.374V206.311H228.276V207.453H218.978V206.311ZM219.874 212.34C219.874 211.648 220.038 211.03 220.366 210.485C220.694 209.94 221.148 209.516 221.729 209.211C222.314 208.906 222.974 208.754 223.706 208.754C224.433 208.754 225.086 208.906 225.666 209.211C226.246 209.516 226.7 209.94 227.028 210.485C227.362 211.03 227.532 211.648 227.538 212.34C227.532 213.037 227.362 213.658 227.028 214.203C226.7 214.742 226.246 215.164 225.666 215.469C225.086 215.773 224.433 215.926 223.706 215.926C222.974 215.926 222.314 215.773 221.729 215.469C221.148 215.164 220.694 214.742 220.366 214.203C220.038 213.658 219.874 213.037 219.874 212.34ZM221.192 212.34C221.192 212.809 221.298 213.228 221.509 213.597C221.726 213.96 222.024 214.244 222.405 214.449C222.792 214.654 223.226 214.754 223.706 214.748C224.181 214.754 224.608 214.654 224.989 214.449C225.37 214.244 225.669 213.96 225.886 213.597C226.103 213.228 226.214 212.809 226.22 212.34C226.214 211.877 226.103 211.461 225.886 211.092C225.669 210.717 225.37 210.427 224.989 210.222C224.608 210.017 224.181 209.914 223.706 209.914C223.226 209.914 222.792 210.017 222.405 210.222C222.024 210.427 221.726 210.717 221.509 211.092C221.298 211.461 221.192 211.877 221.192 212.34ZM247.155 206.943V207.137C247.144 208.432 247.103 209.589 247.032 210.608C246.968 211.628 246.815 212.809 246.575 214.15L245.169 213.992C245.351 213.066 245.482 212.196 245.564 211.382C245.652 210.562 245.705 209.838 245.723 209.211C245.746 208.584 245.761 207.828 245.767 206.943V206.521H236.134V205.379H247.155V206.943ZM234.622 216.066H240.212V210.477H241.565V216.066H248.86V217.209H234.622V216.066ZM259.987 214.291C259.981 215.012 260.169 215.706 260.55 216.374C260.937 217.036 261.49 217.572 262.211 217.982C262.691 217.684 263.102 217.326 263.441 216.91C263.787 216.488 264.048 216.049 264.224 215.592C264.405 215.135 264.493 214.701 264.487 214.291V213.43H265.841V214.291C265.835 214.83 265.958 215.354 266.21 215.864C266.468 216.374 266.837 216.834 267.317 217.244C267.798 217.648 268.366 217.965 269.022 218.193L268.337 219.213C267.575 218.943 266.922 218.551 266.377 218.035C265.832 217.525 265.419 216.934 265.138 216.26C264.88 216.934 264.505 217.543 264.013 218.088C263.526 218.633 262.94 219.049 262.255 219.336C261.522 219.055 260.907 218.65 260.409 218.123C259.917 217.596 259.548 216.989 259.302 216.304C259.009 216.954 258.596 217.531 258.062 218.035C257.529 218.545 256.899 218.938 256.173 219.213L255.47 218.193C256.108 217.953 256.668 217.625 257.148 217.209C257.629 216.787 257.998 216.321 258.256 215.812C258.514 215.302 258.646 214.795 258.651 214.291V213.43H259.987V214.291ZM255.065 208.385C255.065 207.67 255.238 207.034 255.584 206.478C255.936 205.921 256.422 205.49 257.043 205.186C257.67 204.881 258.376 204.729 259.161 204.729C259.946 204.729 260.649 204.881 261.271 205.186C261.892 205.49 262.378 205.921 262.729 206.478C263.081 207.034 263.257 207.67 263.257 208.385C263.257 209.088 263.081 209.715 262.729 210.266C262.378 210.816 261.892 211.244 261.271 211.549C260.649 211.854 259.946 212.006 259.161 212.006C258.376 212.006 257.67 211.854 257.043 211.549C256.422 211.244 255.936 210.816 255.584 210.266C255.238 209.715 255.065 209.088 255.065 208.385ZM256.419 208.385C256.413 208.859 256.527 209.284 256.762 209.659C256.996 210.034 257.321 210.33 257.737 210.547C258.153 210.758 258.628 210.863 259.161 210.863C259.688 210.863 260.16 210.758 260.576 210.547C260.992 210.33 261.317 210.034 261.552 209.659C261.786 209.284 261.903 208.859 261.903 208.385C261.903 207.904 261.786 207.477 261.552 207.102C261.317 206.721 260.989 206.425 260.567 206.214C260.151 206.003 259.683 205.9 259.161 205.906C258.634 205.9 258.159 206.003 257.737 206.214C257.321 206.425 256.996 206.721 256.762 207.102C256.527 207.477 256.413 207.904 256.419 208.385ZM266.228 203.814H267.599V212.744H266.228V203.814ZM274.454 205.01C275.157 205.01 275.79 205.206 276.353 205.599C276.915 205.985 277.366 206.539 277.706 207.26C278.052 207.975 278.26 208.812 278.33 209.773H281.837V203.797H283.208V219.459H281.837V210.916H278.348C278.301 211.924 278.104 212.806 277.759 213.562C277.419 214.312 276.962 214.889 276.388 215.293C275.819 215.691 275.175 215.891 274.454 215.891C273.687 215.891 273.004 215.671 272.406 215.231C271.814 214.786 271.354 214.153 271.026 213.333C270.698 212.513 270.534 211.555 270.534 210.459C270.534 209.369 270.698 208.414 271.026 207.594C271.354 206.768 271.814 206.132 272.406 205.687C273.004 205.235 273.687 205.01 274.454 205.01ZM271.853 210.459C271.853 211.297 271.961 212.035 272.178 212.674C272.4 213.307 272.708 213.796 273.101 214.142C273.493 214.487 273.944 214.66 274.454 214.66C274.958 214.66 275.406 214.487 275.799 214.142C276.197 213.796 276.505 213.304 276.722 212.665C276.944 212.026 277.056 211.291 277.056 210.459C277.056 209.627 276.944 208.892 276.722 208.253C276.505 207.614 276.197 207.119 275.799 206.768C275.406 206.416 274.958 206.24 274.454 206.24C273.944 206.24 273.493 206.416 273.101 206.768C272.708 207.119 272.4 207.614 272.178 208.253C271.961 208.886 271.853 209.621 271.853 210.459ZM300.118 217.42H285.81V216.26H289.36V212.05C288.681 211.698 288.153 211.244 287.778 210.688C287.403 210.131 287.216 209.504 287.216 208.807C287.216 208.016 287.459 207.315 287.945 206.706C288.432 206.097 289.105 205.625 289.967 205.291C290.834 204.957 291.821 204.787 292.929 204.781C294.036 204.787 295.021 204.957 295.882 205.291C296.749 205.625 297.426 206.097 297.912 206.706C298.398 207.315 298.642 208.016 298.642 208.807C298.642 209.492 298.46 210.11 298.097 210.661C297.733 211.206 297.224 211.654 296.567 212.006V216.26H300.118V217.42ZM288.552 208.807C288.552 209.381 288.736 209.891 289.105 210.336C289.475 210.775 289.99 211.118 290.652 211.364C291.32 211.604 292.079 211.725 292.929 211.725C293.772 211.725 294.525 211.604 295.188 211.364C295.85 211.118 296.368 210.775 296.743 210.336C297.118 209.891 297.306 209.381 297.306 208.807C297.306 208.232 297.118 207.726 296.743 207.286C296.368 206.847 295.85 206.51 295.188 206.275C294.525 206.035 293.772 205.918 292.929 205.924C292.079 205.918 291.32 206.035 290.652 206.275C289.99 206.51 289.475 206.847 289.105 207.286C288.736 207.726 288.552 208.232 288.552 208.807ZM295.179 216.26V212.542C294.481 212.724 293.731 212.814 292.929 212.814C292.12 212.814 291.382 212.727 290.714 212.551V216.26H295.179ZM303.774 214.414H302.298L302.175 205.273H303.897L303.774 214.414ZM301.911 216.963C301.905 216.764 301.952 216.579 302.052 216.409C302.157 216.233 302.295 216.096 302.465 215.996C302.641 215.891 302.831 215.838 303.036 215.838C303.235 215.838 303.42 215.888 303.59 215.987C303.766 216.087 303.903 216.222 304.003 216.392C304.108 216.562 304.161 216.746 304.161 216.945C304.161 217.262 304.053 217.534 303.836 217.763C303.619 217.985 303.353 218.1 303.036 218.105C302.831 218.105 302.641 218.053 302.465 217.947C302.295 217.842 302.157 217.704 302.052 217.534C301.952 217.358 301.905 217.168 301.911 216.963ZM15.3525 243.42H1.04395V242.26H7.49512V238.463H8.88379V242.26H15.3525V243.42ZM1.74707 237.9C2.64355 237.748 3.53418 237.42 4.41895 236.916C5.30957 236.406 6.03906 235.788 6.60742 235.062C7.17578 234.329 7.45996 233.564 7.45996 232.768V232.381H2.22168V231.221H14.1221V232.381H8.88379V232.768C8.88379 233.564 9.1709 234.326 9.74512 235.053C10.3193 235.773 11.0518 236.383 11.9424 236.881C12.8389 237.379 13.7471 237.701 14.667 237.848L14.1045 238.938C13.29 238.773 12.4902 238.501 11.7051 238.12C10.9258 237.733 10.2256 237.256 9.60449 236.688C8.9834 236.113 8.51172 235.478 8.18945 234.78C7.86719 235.483 7.39551 236.128 6.77441 236.714C6.15918 237.294 5.46191 237.78 4.68262 238.173C3.90918 238.565 3.12402 238.844 2.32715 239.008L1.74707 237.9ZM29.0283 231.801C29.0283 232.645 29.0049 233.406 28.958 234.086C28.9111 234.76 28.7969 235.527 28.6152 236.389H30.9092V237.531H16.6006V236.389H27.2266C27.4023 235.609 27.5166 234.9 27.5693 234.262C27.6279 233.617 27.6572 232.949 27.6572 232.258V231.801V231.783H18.4111V230.641H29.0283V231.801ZM18.3584 239.693H29.0986V245.213H18.3584V239.693ZM27.7275 244.088V240.783H19.7295V244.088H27.7275ZM40.0498 238.41H32.8252V231.221H40.0498V238.41ZM38.7139 237.303V232.346H34.1787V237.303H38.7139ZM34.6006 240.168H35.9541V243.93H45.0947V245.09H34.6006V240.168ZM43.0029 229.797H44.374V234.561H46.7295V235.721H44.374V241.258H43.0029V229.797ZM65.1514 245.424H63.7627V229.797H65.1514V245.424ZM52.4248 241.363C54.5107 240.373 56.1074 239.143 57.2148 237.672C58.3281 236.201 58.9639 234.52 59.1221 232.627H53.1455V231.502H60.5283C60.5166 233.857 59.9189 235.976 58.7354 237.856C57.5518 239.737 55.7002 241.281 53.1807 242.488L52.4248 241.363ZM79.8818 235.984H82.501V237.145H79.8818V245.459H78.5107V229.797H79.8818V235.984ZM68.4736 231.326H75.7686V232.469H69.8447V240.379C71.3213 240.373 72.6016 240.329 73.6855 240.247C74.7695 240.165 75.874 240.021 76.999 239.816L77.1748 241.012C76.0146 241.223 74.8779 241.363 73.7646 241.434C72.6572 241.504 71.3037 241.539 69.7041 241.539H68.4736V231.326ZM96.2822 245.459H94.9111V238.797H91.6592V237.637H94.9111V234.525H91.7822V233.365H94.9111V229.797H96.2822V245.459ZM83.8896 231.221H90.7627V236.775H85.3135V240.625C86.5791 240.625 87.7246 240.593 88.75 240.528C89.7754 240.464 90.8506 240.344 91.9756 240.168L92.0986 241.328C90.915 241.51 89.79 241.636 88.7236 241.706C87.6572 241.771 86.4502 241.803 85.1025 241.803H83.9424V235.65H89.4092V232.363H83.8896V231.221ZM106.794 232.012C106.794 232.68 107.055 233.318 107.576 233.928C108.104 234.531 108.792 235.041 109.642 235.457C110.491 235.873 111.376 236.148 112.296 236.283L111.786 237.373C110.96 237.232 110.166 236.998 109.404 236.67C108.643 236.336 107.963 235.923 107.365 235.431C106.773 234.938 106.325 234.388 106.021 233.778C105.716 234.388 105.268 234.938 104.676 235.431C104.084 235.923 103.407 236.336 102.646 236.67C101.89 236.998 101.104 237.232 100.29 237.373L99.7451 236.283C100.665 236.148 101.547 235.873 102.391 235.457C103.234 235.041 103.92 234.531 104.447 233.928C104.98 233.318 105.247 232.68 105.247 232.012V231.906H100.237V230.781H111.786V231.906H106.794V232.012ZM98.9014 238.709H113.14V239.852H106.671V245.424H105.317V239.852H98.9014V238.709ZM120.013 233.998C120.013 234.924 120.203 235.844 120.584 236.758C120.965 237.666 121.478 238.475 122.122 239.184C122.772 239.893 123.481 240.42 124.249 240.766L123.405 241.855C122.509 241.422 121.7 240.769 120.979 239.896C120.259 239.017 119.711 238.023 119.336 236.916C118.979 238.094 118.437 239.148 117.71 240.08C116.983 241.012 116.163 241.709 115.249 242.172L114.37 241.012C115.144 240.66 115.855 240.118 116.506 239.386C117.156 238.653 117.672 237.815 118.053 236.872C118.439 235.923 118.636 234.965 118.642 233.998V231.15H120.013V233.998ZM125.954 229.797H127.343V245.459H125.954V229.797ZM137.925 232.557H141.581V229.814H142.97V241.223H141.581V237.057H137.925V238.463H130.753V231.168H137.925V232.557ZM136.571 237.355V232.311H132.124V237.355H136.571ZM132.862 240.203H134.251V243.93H143.321V245.09H132.862V240.203ZM141.581 235.914V233.717H137.925V235.914H141.581ZM162.517 231.854C162.511 232.715 162.484 233.441 162.438 234.033C162.391 234.625 162.276 235.281 162.095 236.002L160.724 235.826C160.911 235.111 161.028 234.473 161.075 233.91C161.122 233.342 161.146 232.656 161.146 231.854V231.66H151.794V230.535H162.517V231.854ZM150.106 236.881H155.995V233.963H157.349V236.881H164.327V238.023H150.106V236.881ZM151.882 239.746H162.499V240.871H153.271V244.07H162.71V245.213H151.882V239.746ZM178.056 238.41H170.831V231.221H178.056V238.41ZM176.72 237.303V232.346H172.185V237.303H176.72ZM172.606 240.168H173.96V243.93H183.101V245.09H172.606V240.168ZM181.009 229.797H182.38V234.561H184.735V235.721H182.38V241.258H181.009V229.797ZM197.937 233.066H200.292V234.227H197.937V237.689H196.565V229.797H197.937V233.066ZM186.476 230.5H187.864V235.738C189.054 235.744 190.223 235.697 191.371 235.598C192.525 235.492 193.706 235.316 194.913 235.07L195.089 236.23C193.835 236.488 192.613 236.67 191.424 236.775C190.24 236.875 189.007 236.928 187.724 236.934H186.476V230.5ZM187.97 238.445H197.937V242.26H189.376V244.088H198.517V245.213H188.005V241.17H196.565V239.553H187.97V238.445ZM213.634 231.256C213.634 231.965 213.906 232.642 214.451 233.286C215.002 233.925 215.714 234.464 216.587 234.903C217.466 235.337 218.38 235.621 219.329 235.756L218.767 236.881C217.946 236.746 217.152 236.512 216.385 236.178C215.617 235.838 214.929 235.416 214.319 234.912C213.716 234.402 213.253 233.837 212.931 233.216C212.608 233.843 212.146 234.408 211.542 234.912C210.938 235.416 210.253 235.838 209.485 236.178C208.718 236.512 207.921 236.746 207.095 236.881L206.532 235.756C207.487 235.621 208.401 235.337 209.274 234.903C210.147 234.47 210.854 233.934 211.393 233.295C211.938 232.656 212.21 231.977 212.21 231.256V230.359H213.634V231.256ZM205.794 238.604H220.032V239.764H213.563V245.424H212.21V239.764H205.794V238.604ZM231.159 240.291C231.153 241.012 231.341 241.706 231.722 242.374C232.108 243.036 232.662 243.572 233.383 243.982C233.863 243.684 234.273 243.326 234.613 242.91C234.959 242.488 235.22 242.049 235.396 241.592C235.577 241.135 235.665 240.701 235.659 240.291V239.43H237.013V240.291C237.007 240.83 237.13 241.354 237.382 241.864C237.64 242.374 238.009 242.834 238.489 243.244C238.97 243.648 239.538 243.965 240.194 244.193L239.509 245.213C238.747 244.943 238.094 244.551 237.549 244.035C237.004 243.525 236.591 242.934 236.31 242.26C236.052 242.934 235.677 243.543 235.185 244.088C234.698 244.633 234.112 245.049 233.427 245.336C232.694 245.055 232.079 244.65 231.581 244.123C231.089 243.596 230.72 242.989 230.474 242.304C230.181 242.954 229.768 243.531 229.234 244.035C228.701 244.545 228.071 244.938 227.345 245.213L226.642 244.193C227.28 243.953 227.84 243.625 228.32 243.209C228.801 242.787 229.17 242.321 229.428 241.812C229.686 241.302 229.817 240.795 229.823 240.291V239.43H231.159V240.291ZM226.237 234.385C226.237 233.67 226.41 233.034 226.756 232.478C227.107 231.921 227.594 231.49 228.215 231.186C228.842 230.881 229.548 230.729 230.333 230.729C231.118 230.729 231.821 230.881 232.442 231.186C233.063 231.49 233.55 231.921 233.901 232.478C234.253 233.034 234.429 233.67 234.429 234.385C234.429 235.088 234.253 235.715 233.901 236.266C233.55 236.816 233.063 237.244 232.442 237.549C231.821 237.854 231.118 238.006 230.333 238.006C229.548 238.006 228.842 237.854 228.215 237.549C227.594 237.244 227.107 236.816 226.756 236.266C226.41 235.715 226.237 235.088 226.237 234.385ZM227.591 234.385C227.585 234.859 227.699 235.284 227.934 235.659C228.168 236.034 228.493 236.33 228.909 236.547C229.325 236.758 229.8 236.863 230.333 236.863C230.86 236.863 231.332 236.758 231.748 236.547C232.164 236.33 232.489 236.034 232.724 235.659C232.958 235.284 233.075 234.859 233.075 234.385C233.075 233.904 232.958 233.477 232.724 233.102C232.489 232.721 232.161 232.425 231.739 232.214C231.323 232.003 230.854 231.9 230.333 231.906C229.806 231.9 229.331 232.003 228.909 232.214C228.493 232.425 228.168 232.721 227.934 233.102C227.699 233.477 227.585 233.904 227.591 234.385ZM237.399 229.814H238.771V238.744H237.399V229.814ZM248.544 230.078C249.698 230.078 250.688 230.184 251.515 230.395C252.341 230.6 252.971 230.904 253.404 231.309C253.844 231.707 254.063 232.193 254.063 232.768C254.063 233.354 253.844 233.852 253.404 234.262C252.971 234.672 252.341 234.982 251.515 235.193C250.694 235.398 249.704 235.504 248.544 235.51C247.378 235.504 246.382 235.398 245.556 235.193C244.729 234.982 244.097 234.672 243.657 234.262C243.224 233.852 243.007 233.354 243.007 232.768C243.007 232.193 243.224 231.707 243.657 231.309C244.097 230.904 244.729 230.6 245.556 230.395C246.388 230.184 247.384 230.078 248.544 230.078ZM241.425 236.564H255.663V237.689H241.425V236.564ZM243.147 239.043H253.835V242.541H244.554V244.158H254.31V245.248H243.183V241.521H252.481V240.098H243.147V239.043ZM244.448 232.768C244.442 233.307 244.797 233.723 245.512 234.016C246.227 234.309 247.237 234.455 248.544 234.455C249.845 234.455 250.853 234.312 251.567 234.024C252.288 233.731 252.651 233.312 252.657 232.768C252.657 232.428 252.493 232.135 252.165 231.889C251.843 231.643 251.371 231.452 250.75 231.317C250.135 231.183 249.399 231.115 248.544 231.115C247.683 231.115 246.944 231.183 246.329 231.317C245.714 231.452 245.245 231.643 244.923 231.889C244.601 232.135 244.442 232.428 244.448 232.768ZM269.919 245.424H268.548V237.232H264.821V236.09H268.548V229.797H269.919V245.424ZM256.999 241.346C261.013 239.4 263.169 236.494 263.468 232.627H257.685V231.502H264.856C264.851 233.857 264.288 235.964 263.169 237.821C262.05 239.673 260.245 241.217 257.755 242.453L256.999 241.346ZM285.933 245.424H284.597V229.797H285.933V245.424ZM272.731 236.547C272.731 235.451 272.869 234.496 273.145 233.682C273.426 232.861 273.818 232.229 274.322 231.783C274.826 231.338 275.415 231.115 276.089 231.115C276.716 231.115 277.272 231.312 277.759 231.704C278.245 232.091 278.632 232.645 278.919 233.365C279.212 234.08 279.388 234.924 279.446 235.896H281.468V230.131H282.786V244.633H281.468V237.039H279.455C279.414 238.041 279.247 238.917 278.954 239.667C278.667 240.411 278.277 240.982 277.785 241.381C277.293 241.779 276.728 241.979 276.089 241.979C275.415 241.979 274.826 241.759 274.322 241.319C273.818 240.874 273.426 240.241 273.145 239.421C272.869 238.601 272.731 237.643 272.731 236.547ZM274.032 236.547C274.026 237.385 274.105 238.114 274.27 238.735C274.439 239.356 274.68 239.834 274.99 240.168C275.307 240.502 275.673 240.666 276.089 240.66C276.505 240.666 276.868 240.505 277.179 240.177C277.495 239.843 277.738 239.368 277.908 238.753C278.078 238.138 278.163 237.417 278.163 236.591C278.163 235.741 278.078 235.003 277.908 234.376C277.744 233.749 277.504 233.266 277.188 232.926C276.877 232.586 276.511 232.416 276.089 232.416C275.667 232.416 275.301 232.586 274.99 232.926C274.68 233.26 274.439 233.737 274.27 234.358C274.105 234.979 274.026 235.709 274.032 236.547ZM302.403 243.42H288.095V242.26H291.646V238.05C290.966 237.698 290.438 237.244 290.063 236.688C289.688 236.131 289.501 235.504 289.501 234.807C289.501 234.016 289.744 233.315 290.23 232.706C290.717 232.097 291.391 231.625 292.252 231.291C293.119 230.957 294.106 230.787 295.214 230.781C296.321 230.787 297.306 230.957 298.167 231.291C299.034 231.625 299.711 232.097 300.197 232.706C300.684 233.315 300.927 234.016 300.927 234.807C300.927 235.492 300.745 236.11 300.382 236.661C300.019 237.206 299.509 237.654 298.853 238.006V242.26H302.403V243.42ZM290.837 234.807C290.837 235.381 291.021 235.891 291.391 236.336C291.76 236.775 292.275 237.118 292.938 237.364C293.605 237.604 294.364 237.725 295.214 237.725C296.058 237.725 296.811 237.604 297.473 237.364C298.135 237.118 298.653 236.775 299.028 236.336C299.403 235.891 299.591 235.381 299.591 234.807C299.591 234.232 299.403 233.726 299.028 233.286C298.653 232.847 298.135 232.51 297.473 232.275C296.811 232.035 296.058 231.918 295.214 231.924C294.364 231.918 293.605 232.035 292.938 232.275C292.275 232.51 291.76 232.847 291.391 233.286C291.021 233.726 290.837 234.232 290.837 234.807ZM297.464 242.26V238.542C296.767 238.724 296.017 238.814 295.214 238.814C294.405 238.814 293.667 238.727 292.999 238.551V242.26H297.464ZM305.304 244.105C305.099 244.105 304.908 244.053 304.732 243.947C304.562 243.842 304.425 243.704 304.319 243.534C304.22 243.358 304.173 243.168 304.179 242.963C304.173 242.764 304.22 242.579 304.319 242.409C304.425 242.233 304.562 242.096 304.732 241.996C304.908 241.891 305.099 241.838 305.304 241.838C305.503 241.838 305.688 241.888 305.857 241.987C306.033 242.087 306.171 242.222 306.271 242.392C306.376 242.562 306.429 242.746 306.429 242.945C306.429 243.262 306.32 243.534 306.104 243.763C305.887 243.985 305.62 244.1 305.304 244.105Z" fill="#333333"/>
</svg>
