<svg width="379" height="398" viewBox="0 0 379 398" fill="none" xmlns="http://www.w3.org/2000/svg">
<path d="M98.1025 363.504H90.8779V353.344H98.1025V363.504ZM96.749 362.379V354.451H92.2314V362.379H96.749ZM101.46 351.797H102.849V367.459H101.46V351.797ZM111.11 356.596C111.11 357.457 111.301 358.315 111.682 359.171C112.068 360.026 112.584 360.788 113.229 361.456C113.879 362.118 114.585 362.613 115.347 362.941L114.573 364.031C113.653 363.615 112.824 362.982 112.086 362.133C111.354 361.283 110.806 360.319 110.442 359.241C110.079 360.384 109.528 361.421 108.79 362.353C108.058 363.278 107.243 363.967 106.347 364.418L105.521 363.328C106.265 362.971 106.956 362.432 107.595 361.711C108.239 360.99 108.755 360.179 109.142 359.276C109.528 358.368 109.722 357.475 109.722 356.596V354.557H106.03V353.414H114.837V354.557H111.11V356.596ZM117.017 351.797H118.405V367.424H117.017V351.797ZM126.192 352.939C127.001 352.939 127.722 353.095 128.354 353.405C128.993 353.716 129.491 354.149 129.849 354.706C130.212 355.263 130.394 355.898 130.394 356.613C130.394 357.328 130.212 357.964 129.849 358.521C129.491 359.077 128.993 359.511 128.354 359.821C127.722 360.132 127.001 360.287 126.192 360.287C125.378 360.287 124.648 360.132 124.004 359.821C123.365 359.511 122.867 359.077 122.51 358.521C122.152 357.964 121.974 357.328 121.974 356.613C121.974 355.898 122.152 355.263 122.51 354.706C122.867 354.149 123.365 353.716 124.004 353.405C124.648 353.095 125.378 352.939 126.192 352.939ZM121.895 362.836C123.67 362.836 125.354 362.801 126.948 362.73C128.548 362.66 130.06 362.52 131.483 362.309L131.589 363.328C130.013 363.621 128.41 363.809 126.781 363.891C125.152 363.973 123.345 364.014 121.358 364.014L121.165 362.836H121.895ZM123.327 356.613C123.327 357.094 123.447 357.521 123.688 357.896C123.934 358.266 124.273 358.556 124.707 358.767C125.146 358.972 125.642 359.074 126.192 359.074C126.737 359.074 127.227 358.972 127.66 358.767C128.094 358.556 128.431 358.266 128.671 357.896C128.917 357.521 129.04 357.094 129.04 356.613C129.04 356.139 128.917 355.714 128.671 355.339C128.431 354.964 128.094 354.674 127.66 354.469C127.227 354.258 126.737 354.152 126.192 354.152C125.642 354.152 125.146 354.258 124.707 354.469C124.273 354.674 123.934 354.964 123.688 355.339C123.447 355.714 123.327 356.139 123.327 356.613ZM132.521 351.797H133.892V367.459H132.521V351.797ZM148.218 361.676C149.331 361.676 150.298 361.79 151.118 362.019C151.944 362.241 152.58 362.569 153.025 363.003C153.477 363.431 153.702 363.943 153.702 364.541C153.702 365.133 153.477 365.643 153.025 366.07C152.58 366.498 151.944 366.823 151.118 367.046C150.298 367.274 149.331 367.389 148.218 367.389C147.104 367.389 146.135 367.274 145.309 367.046C144.488 366.823 143.855 366.498 143.41 366.07C142.971 365.643 142.751 365.133 142.751 364.541C142.751 363.943 142.971 363.431 143.41 363.003C143.855 362.569 144.488 362.241 145.309 362.019C146.135 361.79 147.104 361.676 148.218 361.676ZM141.169 359.092H147.058V356.068H148.411V359.092H155.39V360.217H141.169V359.092ZM142.856 352.605H153.579V353.924C153.573 354.785 153.547 355.515 153.5 356.112C153.453 356.704 153.333 357.357 153.14 358.072L151.786 357.914C151.974 357.199 152.091 356.558 152.138 355.989C152.185 355.415 152.208 354.727 152.208 353.924V353.73H142.856V352.605ZM144.122 364.541C144.122 364.898 144.289 365.212 144.623 365.481C144.957 365.745 145.432 365.947 146.047 366.088C146.668 366.229 147.392 366.299 148.218 366.299C149.044 366.299 149.765 366.229 150.38 366.088C151.001 365.947 151.479 365.745 151.812 365.481C152.152 365.212 152.325 364.898 152.331 364.541C152.325 364.172 152.152 363.853 151.812 363.583C151.479 363.313 151.001 363.105 150.38 362.959C149.765 362.807 149.044 362.73 148.218 362.73C147.392 362.73 146.668 362.807 146.047 362.959C145.432 363.105 144.957 363.313 144.623 363.583C144.289 363.853 144.122 364.172 144.122 364.541ZM168.925 356.561H171.28V357.721H168.925V363.24H167.536V351.797H168.925V356.561ZM156.726 360.322C157.979 359.93 159.075 359.429 160.013 358.819C160.95 358.21 161.691 357.51 162.236 356.719C162.787 355.928 163.109 355.078 163.203 354.17H157.376V353.01H164.706C164.706 354.328 164.407 355.538 163.81 356.64C163.212 357.741 162.359 358.696 161.252 359.505C160.145 360.313 158.835 360.955 157.323 361.43L156.726 360.322ZM159.134 362.08H160.505V365.93H169.646V367.09H159.134V362.08ZM179.384 352.816C180.468 352.816 181.443 352.998 182.311 353.361C183.178 353.719 183.857 354.223 184.35 354.873C184.848 355.518 185.097 356.262 185.097 357.105C185.097 357.955 184.848 358.708 184.35 359.364C183.857 360.015 183.178 360.519 182.311 360.876C181.443 361.228 180.468 361.4 179.384 361.395C178.3 361.4 177.324 361.228 176.457 360.876C175.59 360.519 174.907 360.015 174.409 359.364C173.917 358.708 173.671 357.955 173.671 357.105C173.671 356.262 173.917 355.518 174.409 354.873C174.907 354.223 175.59 353.719 176.457 353.361C177.324 352.998 178.3 352.816 179.384 352.816ZM172.265 364.189H186.573V365.35H172.265V364.189ZM174.989 357.105C174.983 357.727 175.171 358.277 175.552 358.758C175.933 359.238 176.457 359.61 177.125 359.874C177.793 360.138 178.546 360.27 179.384 360.27C180.216 360.27 180.963 360.138 181.625 359.874C182.293 359.61 182.814 359.238 183.189 358.758C183.57 358.277 183.761 357.727 183.761 357.105C183.761 356.49 183.57 355.942 183.189 355.462C182.809 354.981 182.284 354.609 181.616 354.346C180.954 354.076 180.21 353.941 179.384 353.941C178.552 353.941 177.799 354.076 177.125 354.346C176.457 354.609 175.933 354.981 175.552 355.462C175.171 355.942 174.983 356.49 174.989 357.105ZM202.13 365.49H187.821V364.33H194.255V361.377H189.614V356.561H198.966V354.1H189.579V352.957H200.319V357.686H190.985V360.234H200.688V361.377H195.608V364.33H202.13V365.49ZM212.606 352.816C213.403 352.822 214.115 352.98 214.742 353.291C215.375 353.602 215.87 354.035 216.228 354.592C216.591 355.143 216.772 355.775 216.772 356.49C216.772 357.135 216.626 357.715 216.333 358.23C216.04 358.746 215.63 359.165 215.103 359.487C214.581 359.81 213.983 360.015 213.31 360.103V362.757C214.927 362.687 216.356 362.572 217.599 362.414L217.687 363.451C216.356 363.68 214.959 363.835 213.494 363.917C212.029 363.993 210.491 364.031 208.88 364.031H207.931L207.702 362.871C209.548 362.859 210.954 362.839 211.921 362.81V360.103C211.229 360.021 210.62 359.818 210.093 359.496C209.571 359.174 209.164 358.755 208.871 358.239C208.584 357.718 208.44 357.135 208.44 356.49C208.44 355.775 208.616 355.143 208.968 354.592C209.319 354.035 209.812 353.602 210.444 353.291C211.077 352.98 211.798 352.822 212.606 352.816ZM209.794 356.49C209.788 356.971 209.905 357.401 210.146 357.782C210.386 358.157 210.72 358.45 211.147 358.661C211.575 358.866 212.062 358.969 212.606 358.969C213.14 358.969 213.617 358.866 214.039 358.661C214.467 358.45 214.801 358.157 215.041 357.782C215.287 357.401 215.413 356.971 215.419 356.49C215.413 356.01 215.287 355.582 215.041 355.207C214.801 354.832 214.467 354.539 214.039 354.328C213.617 354.117 213.14 354.012 212.606 354.012C212.062 354.012 211.575 354.117 211.147 354.328C210.72 354.539 210.386 354.832 210.146 355.207C209.905 355.582 209.788 356.01 209.794 356.49ZM218.601 351.797H219.972V358.248H222.521V359.443H219.972V367.424H218.601V351.797ZM236.407 367.459H235.036V358.758H231.292V363.504H224.085V353.027H225.474V357.105H229.938V353.027H231.292V357.615H235.036V351.797H236.407V367.459ZM229.938 362.361V358.213H225.474V362.361H229.938ZM246.427 356.982H241.048V359.32C242.63 359.314 243.854 359.288 244.722 359.241C245.589 359.194 246.462 359.092 247.341 358.934L247.481 360.059C246.614 360.217 245.756 360.322 244.906 360.375C244.062 360.422 242.926 360.445 241.496 360.445H240.784H239.677V355.91H245.056V353.748H239.642V352.605H246.427V356.982ZM239.817 366.422C240.462 366.188 241.024 365.859 241.505 365.438C241.991 365.016 242.363 364.547 242.621 364.031C242.885 363.51 243.017 362.994 243.017 362.484V361.57H244.335V362.484C244.341 363.223 244.534 363.932 244.915 364.611C245.296 365.285 245.844 365.824 246.559 366.229C247.039 365.936 247.449 365.575 247.789 365.147C248.129 364.72 248.387 364.274 248.562 363.812C248.738 363.343 248.829 362.9 248.835 362.484V361.57H250.188V362.484C250.188 363.029 250.314 363.562 250.566 364.084C250.818 364.6 251.185 365.062 251.665 365.473C252.146 365.883 252.714 366.199 253.37 366.422L252.667 367.459C251.905 367.184 251.252 366.785 250.707 366.264C250.168 365.748 249.761 365.15 249.485 364.471C249.228 365.15 248.855 365.763 248.369 366.308C247.883 366.858 247.288 367.283 246.585 367.582C245.864 367.301 245.255 366.894 244.757 366.36C244.265 365.827 243.896 365.215 243.649 364.523C243.356 365.18 242.943 365.763 242.41 366.272C241.883 366.788 241.259 367.184 240.538 367.459L239.817 366.422ZM247.481 357.264H250.575V355.119H247.481V353.994H250.575V351.814H251.964V361.184H250.575V358.389H247.481V357.264ZM256.71 362.256C257.653 362.244 258.532 362.203 259.347 362.133C260.161 362.057 261.005 361.928 261.878 361.746L262.071 362.941C261.11 363.146 260.185 363.284 259.294 363.354C258.403 363.425 257.413 363.463 256.323 363.469H255.339V353.502H256.71V362.256ZM259.716 357.07H263.284V352.184H264.603V366.633H263.284V358.213H259.716V357.07ZM266.624 351.797H267.942V367.424H266.624V351.797ZM284.431 365.42H270.122V364.26H273.673V360.05C272.993 359.698 272.466 359.244 272.091 358.688C271.716 358.131 271.528 357.504 271.528 356.807C271.528 356.016 271.771 355.315 272.258 354.706C272.744 354.097 273.418 353.625 274.279 353.291C275.146 352.957 276.134 352.787 277.241 352.781C278.349 352.787 279.333 352.957 280.194 353.291C281.062 353.625 281.738 354.097 282.225 354.706C282.711 355.315 282.954 356.016 282.954 356.807C282.954 357.492 282.772 358.11 282.409 358.661C282.046 359.206 281.536 359.654 280.88 360.006V364.26H284.431V365.42ZM272.864 356.807C272.864 357.381 273.049 357.891 273.418 358.336C273.787 358.775 274.303 359.118 274.965 359.364C275.633 359.604 276.392 359.725 277.241 359.725C278.085 359.725 278.838 359.604 279.5 359.364C280.162 359.118 280.681 358.775 281.056 358.336C281.431 357.891 281.618 357.381 281.618 356.807C281.618 356.232 281.431 355.726 281.056 355.286C280.681 354.847 280.162 354.51 279.5 354.275C278.838 354.035 278.085 353.918 277.241 353.924C276.392 353.918 275.633 354.035 274.965 354.275C274.303 354.51 273.787 354.847 273.418 355.286C273.049 355.726 272.864 356.232 272.864 356.807ZM279.491 364.26V360.542C278.794 360.724 278.044 360.814 277.241 360.814C276.433 360.814 275.694 360.727 275.026 360.551V364.26H279.491ZM288.087 362.414H286.61L286.487 353.273H288.21L288.087 362.414ZM286.224 364.963C286.218 364.764 286.265 364.579 286.364 364.409C286.47 364.233 286.607 364.096 286.777 363.996C286.953 363.891 287.144 363.838 287.349 363.838C287.548 363.838 287.732 363.888 287.902 363.987C288.078 364.087 288.216 364.222 288.315 364.392C288.421 364.562 288.474 364.746 288.474 364.945C288.474 365.262 288.365 365.534 288.148 365.763C287.932 365.985 287.665 366.1 287.349 366.105C287.144 366.105 286.953 366.053 286.777 365.947C286.607 365.842 286.47 365.704 286.364 365.534C286.265 365.358 286.218 365.168 286.224 364.963ZM33.1074 383.984H35.7266V385.145H33.1074V393.459H31.7363V377.797H33.1074V383.984ZM21.6992 379.326H28.9941V380.469H23.0703V388.379C24.5469 388.373 25.8271 388.329 26.9111 388.247C27.9951 388.165 29.0996 388.021 30.2246 387.816L30.4004 389.012C29.2402 389.223 28.1035 389.363 26.9902 389.434C25.8828 389.504 24.5293 389.539 22.9297 389.539H21.6992V379.326ZM42.125 381.998C42.125 382.924 42.3154 383.844 42.6963 384.758C43.0771 385.666 43.5898 386.475 44.2344 387.184C44.8848 387.893 45.5938 388.42 46.3613 388.766L45.5176 389.855C44.6211 389.422 43.8125 388.769 43.0918 387.896C42.3711 387.017 41.8232 386.023 41.4482 384.916C41.0908 386.094 40.5488 387.148 39.8223 388.08C39.0957 389.012 38.2754 389.709 37.3613 390.172L36.4824 389.012C37.2559 388.66 37.9678 388.118 38.6182 387.386C39.2686 386.653 39.7842 385.815 40.165 384.872C40.5518 383.923 40.748 382.965 40.7539 381.998V379.15H42.125V381.998ZM48.0664 377.797H49.4551V393.459H48.0664V377.797ZM64.4492 381.629H56.6094V380.504H59.8613V378.271H61.2324V380.504H64.4492V381.629ZM57.1719 386.234C57.1719 385.555 57.3154 384.945 57.6025 384.406C57.8955 383.867 58.2969 383.445 58.8066 383.141C59.3164 382.836 59.8906 382.684 60.5293 382.684C61.1797 382.684 61.7598 382.836 62.2695 383.141C62.7852 383.445 63.1865 383.867 63.4736 384.406C63.7666 384.939 63.916 385.549 63.9219 386.234C63.916 386.926 63.7666 387.544 63.4736 388.089C63.1865 388.628 62.7852 389.053 62.2695 389.363C61.7598 389.668 61.1797 389.82 60.5293 389.82C59.8906 389.82 59.3135 389.668 58.7979 389.363C58.2881 389.053 57.8896 388.628 57.6025 388.089C57.3154 387.544 57.1719 386.926 57.1719 386.234ZM58.4023 386.234C58.4023 386.691 58.4932 387.102 58.6748 387.465C58.8564 387.822 59.1084 388.104 59.4307 388.309C59.7529 388.508 60.1191 388.607 60.5293 388.607C60.9395 388.607 61.3086 388.508 61.6367 388.309C61.9648 388.104 62.2227 387.822 62.4102 387.465C62.5977 387.102 62.6914 386.691 62.6914 386.234C62.6914 385.783 62.5977 385.379 62.4102 385.021C62.2227 384.658 61.9648 384.374 61.6367 384.169C61.3086 383.958 60.9395 383.85 60.5293 383.844C60.1191 383.85 59.7529 383.958 59.4307 384.169C59.1084 384.374 58.8564 384.658 58.6748 385.021C58.4932 385.379 58.4023 385.783 58.4023 386.234ZM65.2578 378.184H66.5586V384.389H68.6328V377.797H69.9512V393.424H68.6328V385.531H66.5586V392.65H65.2578V378.184ZM74.3984 381.277H79.0039V378.781H80.375V386.217H73.0273V378.781H74.3984V381.277ZM74.0117 392.281C74.9609 392.117 75.8369 391.833 76.6396 391.429C77.4482 391.019 78.0928 390.512 78.5732 389.908C79.0596 389.305 79.3027 388.643 79.3027 387.922V387.535H80.7441V387.922C80.7383 388.643 80.9756 389.305 81.4561 389.908C81.9365 390.512 82.5781 391.019 83.3809 391.429C84.1895 391.833 85.0684 392.117 86.0176 392.281L85.4902 393.354C84.2539 393.137 83.1436 392.727 82.1592 392.123C81.1807 391.525 80.4688 390.781 80.0234 389.891C79.5723 390.781 78.8545 391.525 77.8701 392.123C76.8857 392.727 75.7812 393.137 74.5566 393.354L74.0117 392.281ZM79.0039 385.109V382.385H74.3984V385.109H79.0039ZM83.7324 377.797H85.1035V388.432H83.7324V377.797ZM105.723 393.424H104.387V377.797H105.723V393.424ZM92.0996 388.379C92.7969 388.379 93.3477 388.376 93.752 388.37V380.943H92.4336V379.801H99.623V380.943H98.3047V388.186C99.0371 388.121 99.5938 388.062 99.9746 388.01L100.062 389.029C99.002 389.229 97.8096 389.366 96.4854 389.442C95.1611 389.519 93.8545 389.557 92.5654 389.557H92.2754L92.0996 388.379ZM95.0176 388.344C95.7031 388.326 96.3711 388.3 97.0215 388.265V380.943H95.0176V388.344ZM99.166 383.738H101.346V378.184H102.664V392.598H101.346V384.986H99.166V383.738ZM120.717 393.459H119.328V377.797H120.717V393.459ZM108.412 384.459C108.412 383.369 108.582 382.414 108.922 381.594C109.262 380.768 109.733 380.132 110.337 379.687C110.94 379.235 111.629 379.01 112.402 379.01C113.176 379.01 113.864 379.235 114.468 379.687C115.071 380.132 115.543 380.768 115.883 381.594C116.223 382.414 116.393 383.369 116.393 384.459C116.393 385.549 116.223 386.507 115.883 387.333C115.543 388.153 115.071 388.786 114.468 389.231C113.864 389.671 113.176 389.891 112.402 389.891C111.629 389.891 110.94 389.671 110.337 389.231C109.733 388.786 109.262 388.153 108.922 387.333C108.582 386.507 108.412 385.549 108.412 384.459ZM109.748 384.459C109.748 385.297 109.859 386.035 110.082 386.674C110.305 387.307 110.618 387.796 111.022 388.142C111.427 388.487 111.887 388.66 112.402 388.66C112.924 388.66 113.384 388.487 113.782 388.142C114.187 387.796 114.5 387.307 114.723 386.674C114.945 386.035 115.057 385.297 115.057 384.459C115.057 383.621 114.945 382.886 114.723 382.253C114.5 381.614 114.187 381.119 113.782 380.768C113.384 380.416 112.924 380.24 112.402 380.24C111.887 380.24 111.427 380.416 111.022 380.768C110.618 381.119 110.305 381.614 110.082 382.253C109.859 382.892 109.748 383.627 109.748 384.459ZM128.979 382.596C128.979 383.457 129.169 384.315 129.55 385.171C129.937 386.026 130.452 386.788 131.097 387.456C131.747 388.118 132.453 388.613 133.215 388.941L132.441 390.031C131.521 389.615 130.692 388.982 129.954 388.133C129.222 387.283 128.674 386.319 128.311 385.241C127.947 386.384 127.396 387.421 126.658 388.353C125.926 389.278 125.111 389.967 124.215 390.418L123.389 389.328C124.133 388.971 124.824 388.432 125.463 387.711C126.107 386.99 126.623 386.179 127.01 385.276C127.396 384.368 127.59 383.475 127.59 382.596V380.557H123.898V379.414H132.705V380.557H128.979V382.596ZM134.885 377.797H136.273V393.424H134.885V377.797ZM153.254 391.49H138.945V390.33H145.379V387.377H140.738V382.561H150.09V380.1H140.703V378.957H151.443V383.686H142.109V386.234H151.812V387.377H146.732V390.33H153.254V391.49ZM171.57 383.105H166.824V384.617H173.258V385.742H159.02V384.617H165.453V383.105H160.918V378.412H171.412V379.555H162.307V381.998H171.57V383.105ZM160.742 387.078H171.43V390.559H162.148V392.141H171.904V393.248H160.777V389.539H170.076V388.133H160.742V387.078ZM178.76 379.01C179.521 379.01 180.201 379.235 180.799 379.687C181.396 380.132 181.862 380.768 182.196 381.594C182.536 382.414 182.709 383.369 182.715 384.459C182.709 385.549 182.536 386.507 182.196 387.333C181.862 388.153 181.396 388.786 180.799 389.231C180.201 389.671 179.521 389.891 178.76 389.891C177.992 389.891 177.31 389.671 176.712 389.231C176.114 388.786 175.648 388.153 175.314 387.333C174.986 386.513 174.822 385.555 174.822 384.459C174.822 383.369 174.986 382.414 175.314 381.594C175.648 380.768 176.114 380.132 176.712 379.687C177.31 379.235 177.992 379.01 178.76 379.01ZM176.123 384.459C176.123 385.297 176.234 386.035 176.457 386.674C176.686 387.307 176.999 387.796 177.397 388.142C177.796 388.487 178.25 388.66 178.76 388.66C179.275 388.66 179.729 388.487 180.122 388.142C180.521 387.796 180.828 387.307 181.045 386.674C181.268 386.035 181.379 385.297 181.379 384.459C181.379 383.621 181.268 382.886 181.045 382.253C180.828 381.614 180.521 381.119 180.122 380.768C179.729 380.416 179.275 380.24 178.76 380.24C178.25 380.24 177.796 380.416 177.397 380.768C176.999 381.119 176.686 381.614 176.457 382.253C176.234 382.886 176.123 383.621 176.123 384.459ZM185.299 377.797H186.67V384.037H189.289V385.232H186.67V393.424H185.299V377.797ZM202.35 381.33H204.705V382.49H202.35V385.76H200.979V377.797H202.35V381.33ZM190.15 385.004C191.439 384.711 192.55 384.31 193.481 383.8C194.419 383.284 195.151 382.681 195.679 381.989C196.206 381.298 196.508 380.539 196.584 379.713H190.854V378.57H198.096C198.096 379.859 197.797 381.008 197.199 382.016C196.607 383.023 195.758 383.876 194.65 384.573C193.549 385.265 192.23 385.795 190.695 386.164L190.15 385.004ZM192.383 386.463H202.35V390.33H193.771V392.141H202.93V393.283H192.418V389.258H200.979V387.588H192.383V386.463ZM218.047 379.256C218.047 379.965 218.319 380.642 218.864 381.286C219.415 381.925 220.127 382.464 221 382.903C221.879 383.337 222.793 383.621 223.742 383.756L223.18 384.881C222.359 384.746 221.565 384.512 220.798 384.178C220.03 383.838 219.342 383.416 218.732 382.912C218.129 382.402 217.666 381.837 217.344 381.216C217.021 381.843 216.559 382.408 215.955 382.912C215.352 383.416 214.666 383.838 213.898 384.178C213.131 384.512 212.334 384.746 211.508 384.881L210.945 383.756C211.9 383.621 212.814 383.337 213.688 382.903C214.561 382.47 215.267 381.934 215.806 381.295C216.351 380.656 216.623 379.977 216.623 379.256V378.359H218.047V379.256ZM210.207 386.604H224.445V387.764H217.977V393.424H216.623V387.764H210.207V386.604ZM235.572 388.291C235.566 389.012 235.754 389.706 236.135 390.374C236.521 391.036 237.075 391.572 237.796 391.982C238.276 391.684 238.687 391.326 239.026 390.91C239.372 390.488 239.633 390.049 239.809 389.592C239.99 389.135 240.078 388.701 240.072 388.291V387.43H241.426V388.291C241.42 388.83 241.543 389.354 241.795 389.864C242.053 390.374 242.422 390.834 242.902 391.244C243.383 391.648 243.951 391.965 244.607 392.193L243.922 393.213C243.16 392.943 242.507 392.551 241.962 392.035C241.417 391.525 241.004 390.934 240.723 390.26C240.465 390.934 240.09 391.543 239.598 392.088C239.111 392.633 238.525 393.049 237.84 393.336C237.107 393.055 236.492 392.65 235.994 392.123C235.502 391.596 235.133 390.989 234.887 390.304C234.594 390.954 234.181 391.531 233.647 392.035C233.114 392.545 232.484 392.938 231.758 393.213L231.055 392.193C231.693 391.953 232.253 391.625 232.733 391.209C233.214 390.787 233.583 390.321 233.841 389.812C234.099 389.302 234.23 388.795 234.236 388.291V387.43H235.572V388.291ZM230.65 382.385C230.65 381.67 230.823 381.034 231.169 380.478C231.521 379.921 232.007 379.49 232.628 379.186C233.255 378.881 233.961 378.729 234.746 378.729C235.531 378.729 236.234 378.881 236.855 379.186C237.477 379.49 237.963 379.921 238.314 380.478C238.666 381.034 238.842 381.67 238.842 382.385C238.842 383.088 238.666 383.715 238.314 384.266C237.963 384.816 237.477 385.244 236.855 385.549C236.234 385.854 235.531 386.006 234.746 386.006C233.961 386.006 233.255 385.854 232.628 385.549C232.007 385.244 231.521 384.816 231.169 384.266C230.823 383.715 230.65 383.088 230.65 382.385ZM232.004 382.385C231.998 382.859 232.112 383.284 232.347 383.659C232.581 384.034 232.906 384.33 233.322 384.547C233.738 384.758 234.213 384.863 234.746 384.863C235.273 384.863 235.745 384.758 236.161 384.547C236.577 384.33 236.902 384.034 237.137 383.659C237.371 383.284 237.488 382.859 237.488 382.385C237.488 381.904 237.371 381.477 237.137 381.102C236.902 380.721 236.574 380.425 236.152 380.214C235.736 380.003 235.268 379.9 234.746 379.906C234.219 379.9 233.744 380.003 233.322 380.214C232.906 380.425 232.581 380.721 232.347 381.102C232.112 381.477 231.998 381.904 232.004 382.385ZM241.812 377.814H243.184V386.744H241.812V377.814ZM259.215 393.424H257.896V377.797H259.215V393.424ZM245.855 389.047C247.52 388.062 248.794 386.885 249.679 385.514C250.569 384.137 251.082 382.613 251.217 380.943H246.523V379.801H252.588C252.588 381.389 252.327 382.859 251.806 384.213H254.609V378.219H255.928V392.633H254.609V385.338H251.296C250.312 387.236 248.768 388.807 246.664 390.049L245.855 389.047ZM278.533 386.252H273.699V390.295H280.221V391.455H265.912V390.295H272.346V386.252H267.74V379.08H278.375V380.205H269.129V385.127H278.533V386.252ZM286.18 378.816C286.977 378.822 287.688 378.98 288.315 379.291C288.948 379.602 289.443 380.035 289.801 380.592C290.164 381.143 290.346 381.775 290.346 382.49C290.346 383.135 290.199 383.715 289.906 384.23C289.613 384.746 289.203 385.165 288.676 385.487C288.154 385.81 287.557 386.015 286.883 386.103V388.757C288.5 388.687 289.93 388.572 291.172 388.414L291.26 389.451C289.93 389.68 288.532 389.835 287.067 389.917C285.603 389.993 284.064 390.031 282.453 390.031H281.504L281.275 388.871C283.121 388.859 284.527 388.839 285.494 388.81V386.103C284.803 386.021 284.193 385.818 283.666 385.496C283.145 385.174 282.737 384.755 282.444 384.239C282.157 383.718 282.014 383.135 282.014 382.49C282.014 381.775 282.189 381.143 282.541 380.592C282.893 380.035 283.385 379.602 284.018 379.291C284.65 378.98 285.371 378.822 286.18 378.816ZM283.367 382.49C283.361 382.971 283.479 383.401 283.719 383.782C283.959 384.157 284.293 384.45 284.721 384.661C285.148 384.866 285.635 384.969 286.18 384.969C286.713 384.969 287.19 384.866 287.612 384.661C288.04 384.45 288.374 384.157 288.614 383.782C288.86 383.401 288.986 382.971 288.992 382.49C288.986 382.01 288.86 381.582 288.614 381.207C288.374 380.832 288.04 380.539 287.612 380.328C287.19 380.117 286.713 380.012 286.18 380.012C285.635 380.012 285.148 380.117 284.721 380.328C284.293 380.539 283.959 380.832 283.719 381.207C283.479 381.582 283.361 382.01 283.367 382.49ZM292.174 377.797H293.545V384.248H296.094V385.443H293.545V393.424H292.174V377.797ZM309.646 386.463H298.854V379.256H309.488V380.398H300.225V385.32H309.646V386.463ZM297.025 390.137H311.334V391.297H297.025V390.137ZM320.545 382.385H314.744V384.318C316.309 384.318 317.642 384.286 318.743 384.222C319.845 384.157 320.984 384.037 322.162 383.861L322.285 384.934C321.084 385.127 319.918 385.259 318.787 385.329C317.656 385.394 316.273 385.426 314.639 385.426H313.373V381.365H319.191V379.643H313.32V378.57H320.545V382.385ZM315.324 386.727H325.484V390.4H316.73V392.141H326.047V393.248H315.359V389.363H324.078V387.816H315.324V386.727ZM324.113 377.797H325.484V386.041H324.113V377.797ZM341.516 393.424H340.197V377.797H341.516V393.424ZM328.156 389.047C329.82 388.062 331.095 386.885 331.979 385.514C332.87 384.137 333.383 382.613 333.518 380.943H328.824V379.801H334.889C334.889 381.389 334.628 382.859 334.106 384.213H336.91V378.219H338.229V392.633H336.91V385.338H333.597C332.612 387.236 331.068 388.807 328.965 390.049L328.156 389.047ZM358.004 391.42H343.695V390.26H347.246V386.05C346.566 385.698 346.039 385.244 345.664 384.688C345.289 384.131 345.102 383.504 345.102 382.807C345.102 382.016 345.345 381.315 345.831 380.706C346.317 380.097 346.991 379.625 347.853 379.291C348.72 378.957 349.707 378.787 350.814 378.781C351.922 378.787 352.906 378.957 353.768 379.291C354.635 379.625 355.312 380.097 355.798 380.706C356.284 381.315 356.527 382.016 356.527 382.807C356.527 383.492 356.346 384.11 355.982 384.661C355.619 385.206 355.109 385.654 354.453 386.006V390.26H358.004V391.42ZM346.438 382.807C346.438 383.381 346.622 383.891 346.991 384.336C347.36 384.775 347.876 385.118 348.538 385.364C349.206 385.604 349.965 385.725 350.814 385.725C351.658 385.725 352.411 385.604 353.073 385.364C353.735 385.118 354.254 384.775 354.629 384.336C355.004 383.891 355.191 383.381 355.191 382.807C355.191 382.232 355.004 381.726 354.629 381.286C354.254 380.847 353.735 380.51 353.073 380.275C352.411 380.035 351.658 379.918 350.814 379.924C349.965 379.918 349.206 380.035 348.538 380.275C347.876 380.51 347.36 380.847 346.991 381.286C346.622 381.726 346.438 382.232 346.438 382.807ZM353.064 390.26V386.542C352.367 386.724 351.617 386.814 350.814 386.814C350.006 386.814 349.268 386.727 348.6 386.551V390.26H353.064Z" fill="#333333"/>
<path d="M83.1714 62.5054C93.1705 54.7538 107.5 50.4194 122.429 52.0204C136 53.4756 147.595 34.9789 155.5 26.9999C169.675 13.582 189.5 17.4999 209.999 23.7183C224.5 28.9999 239.761 31.0498 252.092 23.7183C259.154 19.5198 265.073 13.9205 272.652 10.553C282.179 6.32027 292.037 3.45399 302.295 1.5446C327.18 -3.08734 353.934 10.3687 367.393 31.4362C376.286 45.3564 380.162 67.4427 377.457 83.7364C375.793 93.7585 369.602 100.227 360.797 104.59C352.023 108.937 343.461 111.283 335.885 118.074C323.772 128.933 318.58 141.899 314.483 157.324C306.328 188.031 294.1 218.728 276.968 245.61C261.32 270.163 238.006 288.487 208.113 290.254C186.693 291.52 171.318 279.31 152.654 271.664C138.231 265.756 124.894 268.752 110.885 274.93C95.2313 281.833 81.5933 293.423 64.495 296.868C50.0584 299.777 38.3421 297.449 25.5422 290.163C11.2435 282.024 2.2216 272.905 0.666747 256.117C-0.821233 240.05 5.9993 223.717 11.288 208.956C18.6219 188.487 29.0838 169.165 42.3702 151.915C50.8393 140.919 63.2751 130.453 68.155 117.177C71.952 106.847 69.4488 97.0292 68.7618 86.4658C68.1682 77.3384 76.3321 67.8074 83.1714 62.5054Z" fill="#5139AC"/>
<path fill-rule="evenodd" clip-rule="evenodd" d="M322.5 20C322.224 20 322 20.2239 322 20.5V29.293L318.061 25.3536C317.865 25.1583 317.549 25.1583 317.353 25.3536C317.158 25.5488 317.158 25.8654 317.353 26.0607L321.293 30H314.5C314.224 30 314 30.2239 314 30.5C314 30.7761 314.224 31 314.5 31H321.192L317.646 34.5459C317.451 34.7412 317.451 35.0578 317.646 35.253C317.842 35.4483 318.158 35.4483 318.354 35.253L322 31.6066V39.5C322 39.7761 322.224 40 322.5 40C322.776 40 323 39.7761 323 39.5V31.7072L326.546 35.253C326.741 35.4483 327.058 35.4483 327.253 35.253C327.448 35.0578 327.448 34.7412 327.253 34.5459L323.707 31H330.5C330.776 31 331 30.7761 331 30.5C331 30.2239 330.776 30 330.5 30H323.607L327.546 26.0607C327.741 25.8654 327.741 25.5488 327.546 25.3536C327.351 25.1583 327.034 25.1583 326.839 25.3536L323 29.1924V20.5C323 20.2239 322.776 20 322.5 20Z" fill="#29E0BF"/>
<g opacity="0.5">
<rect x="38" y="211" width="1" height="20" rx="0.5" fill="#29E0BF"/>
<rect x="47" y="221" width="1" height="17" rx="0.5" transform="rotate(90 47 221)" fill="#29E0BF"/>
<rect x="43.1924" y="216" width="1" height="14" rx="0.5" transform="rotate(45 43.1924 216)" fill="#29E0BF"/>
<rect width="1" height="14" rx="0.5" transform="matrix(-0.707107 0.707107 0.707107 0.707107 33.707 216)" fill="#29E0BF"/>
</g>
<rect x="277" y="179" width="1" height="20" rx="0.5" fill="white"/>
<rect x="286" y="189" width="1" height="17" rx="0.5" transform="rotate(90 286 189)" fill="white"/>
<rect x="282.192" y="184" width="1" height="14" rx="0.5" transform="rotate(45 282.192 184)" fill="white"/>
<rect width="1" height="14" rx="0.5" transform="matrix(-0.707107 0.707107 0.707107 0.707107 272.707 184)" fill="white"/>
<g opacity="0.5">
<rect x="260" y="217" width="1" height="20" rx="0.5" fill="white"/>
<rect x="269" y="227" width="1" height="17" rx="0.5" transform="rotate(90 269 227)" fill="white"/>
<rect x="265.192" y="222" width="1" height="14" rx="0.5" transform="rotate(45 265.192 222)" fill="white"/>
<rect width="1" height="14" rx="0.5" transform="matrix(-0.707107 0.707107 0.707107 0.707107 255.707 222)" fill="white"/>
</g>
<rect x="239.6" y="56" width="1.7" height="34" rx="0.85" fill="white"/>
<rect x="254.9" y="73" width="1.7" height="28.9" rx="0.850001" transform="rotate(90 254.9 73)" fill="white"/>
<rect x="248.427" y="64.5" width="1.7" height="23.8" rx="0.85" transform="rotate(45 248.427 64.5)" fill="white"/>
<rect width="1.7" height="23.8" rx="0.85" transform="matrix(-0.707107 0.707107 0.707107 0.707107 232.302 64.5)" fill="white"/>
<rect x="60" y="227" width="2" height="40" rx="1" fill="#29E0BF"/>
<rect x="78" y="247" width="2" height="34" rx="1" transform="rotate(90 78 247)" fill="#29E0BF"/>
<rect x="70.3848" y="237" width="2" height="28" rx="1" transform="rotate(45 70.3848 237)" fill="#29E0BF"/>
<rect width="2" height="28" rx="1" transform="matrix(-0.707107 0.707107 0.707107 0.707107 51.4141 237)" fill="#29E0BF"/>
<path fill-rule="evenodd" clip-rule="evenodd" d="M219.12 145.204C217.544 153.324 213.145 160.18 207.139 164.95C210.926 171.62 212.443 179.624 210.868 187.744C207.362 205.817 189.869 217.625 171.796 214.12C163.676 212.544 156.82 208.145 152.05 202.139C145.38 205.926 137.377 207.443 129.256 205.868C111.184 202.362 99.3748 184.869 102.881 166.796C104.456 158.676 108.855 151.82 114.862 147.05C111.074 140.38 109.557 132.376 111.133 124.256C114.638 106.183 132.131 94.3747 150.204 97.8805C158.324 99.4557 165.18 103.855 169.95 109.862C176.62 106.074 184.624 104.557 192.744 106.133C210.817 109.638 222.625 127.131 219.12 145.204Z" fill="#29E0BF"/>
<rect x="143.861" y="143.508" width="3" height="6" rx="1.5" transform="rotate(85.9781 143.861 143.508)" fill="black"/>
<rect x="171.76" y="151.975" width="3" height="6" rx="1.5" transform="rotate(-64.0219 171.76 151.975)" fill="black"/>
<ellipse cx="154.348" cy="158.784" rx="6" ry="2" transform="rotate(10.9781 154.348 158.784)" fill="black"/>
<path d="M214.725 200.184C214.127 204.376 211.529 208.641 208.277 210.198" stroke="#29E0BF" stroke-linecap="round"/>
<path d="M217.002 206.391C216.774 207.61 216.429 209.157 215.384 209.941" stroke="#29E0BF" stroke-linecap="round"/>
<path d="M114.027 100.66C111.543 101.859 109.589 105.566 108.779 108.097C108.514 108.927 108.522 109.714 108.522 110.568" stroke="#29E0BF" stroke-linecap="round"/>
<path d="M106.981 100C105.773 101.45 105 103.421 105 105.284" stroke="#29E0BF" stroke-linecap="round"/>
</svg>
