<svg width="80" height="80" viewBox="0 0 80 80" fill="none" xmlns="http://www.w3.org/2000/svg">
<path fill-rule="evenodd" clip-rule="evenodd" d="M80 24.2424C80 30.2582 77.8088 35.7623 74.1809 39.9999C77.8088 44.2375 80 49.7415 80 55.7573C80 69.1461 69.1463 79.9998 55.7576 79.9998C49.7417 79.9998 44.2377 77.8085 40 74.1806C35.7624 77.8085 30.2583 79.9998 24.2424 79.9998C10.8537 79.9998 0 69.1461 0 55.7573C0 49.7415 2.19123 44.2375 5.81909 39.9999C2.19123 35.7623 0 30.2582 0 24.2424C0 10.8537 10.8537 0 24.2424 0C30.2583 0 35.7624 2.19127 40 5.8192C44.2377 2.19127 49.7417 0 55.7576 0C69.1463 0 80 10.8537 80 24.2424Z" fill="#29E0BF"/>
<path d="M31.5156 36.3639C31.5156 35.6944 32.0583 35.1517 32.7277 35.1517C33.3972 35.1517 33.9399 35.6944 33.9399 36.3639V37.576C33.9399 38.2454 33.3972 38.7881 32.7277 38.7881C32.0583 38.7881 31.5156 38.2454 31.5156 37.576V36.3639Z" fill="black"/>
<path fill-rule="evenodd" clip-rule="evenodd" d="M33.3407 42.9524C33.7186 42.6217 34.2929 42.66 34.6235 43.0379C35.2185 43.7178 36.3727 44.558 37.8308 44.8003C39.2398 45.0345 41.0385 44.7294 43.0324 42.9571C43.4076 42.6235 43.9822 42.6573 44.3158 43.0326C44.6494 43.4078 44.6156 43.9824 44.2403 44.316C41.8706 46.4224 39.5278 46.9254 37.5328 46.5939C35.5869 46.2706 34.0744 45.1714 33.2552 44.2352C32.9246 43.8573 32.9629 43.283 33.3407 42.9524Z" fill="black"/>
<path fill-rule="evenodd" clip-rule="evenodd" d="M44.6316 37.2078C44.5356 37.2877 44.4512 37.3867 44.3931 37.4739C44.1146 37.8917 43.5502 38.0045 43.1325 37.726C42.7147 37.4475 42.6018 36.8831 42.8803 36.4654C43.142 36.0728 43.6712 35.4969 44.4211 35.3138C44.827 35.2146 45.2784 35.238 45.7227 35.4509C46.1523 35.6567 46.5134 36.0094 46.8174 36.4654C47.0959 36.8831 46.983 37.4475 46.5652 37.726C46.1475 38.0045 45.5831 37.8917 45.3046 37.4739C45.1236 37.2025 44.9898 37.1159 44.9371 37.0906C44.8991 37.0724 44.8808 37.0731 44.8524 37.08C44.8069 37.0911 44.7295 37.1262 44.6316 37.2078Z" fill="black"/>
</svg>
