<svg width="418" height="290" viewBox="0 0 418 290" fill="none" xmlns="http://www.w3.org/2000/svg">
<ellipse cx="208.5" cy="265.175" rx="204.5" ry="20.894" fill="#DBDBDB"/>
<path fill-rule="evenodd" clip-rule="evenodd" d="M229.169 22.9978C242.997 11.1538 260.959 4 280.59 4C324.282 4 359.7 39.4339 359.7 83.1439C359.7 102.784 352.55 120.753 340.711 134.587C352.55 148.422 359.7 166.391 359.7 186.031C359.7 229.741 324.282 265.175 280.59 265.175C260.959 265.175 242.997 258.021 229.169 246.177C215.34 258.021 197.378 265.175 177.747 265.175C134.056 265.175 98.6367 229.741 98.6367 186.031C98.6367 166.391 105.787 148.422 117.626 134.587C105.787 120.753 98.6367 102.784 98.6367 83.1439C98.6367 39.4339 134.056 4 177.747 4C197.378 4 215.34 11.1538 229.169 22.9978Z" fill="#29E0BF"/>
<path d="M201.479 122.716C201.479 120.53 203.25 118.759 205.435 118.759C207.62 118.759 209.391 120.53 209.391 122.716V126.673C209.391 128.859 207.62 130.63 205.435 130.63C203.25 130.63 201.479 128.859 201.479 126.673V122.716Z" fill="black"/>
<path fill-rule="evenodd" clip-rule="evenodd" d="M207.438 144.226C208.671 143.146 210.545 143.271 211.624 144.505C213.566 146.725 217.332 149.468 222.09 150.259C226.688 151.023 232.558 150.027 239.065 144.241C240.289 143.152 242.164 143.262 243.253 144.487C244.341 145.712 244.231 147.588 243.007 148.677C235.273 155.554 227.628 157.196 221.118 156.114C214.768 155.058 209.832 151.47 207.159 148.414C206.08 147.18 206.205 145.305 207.438 144.226Z" fill="black"/>
<path fill-rule="evenodd" clip-rule="evenodd" d="M244.282 125.472C243.969 125.733 243.693 126.056 243.504 126.341C242.595 127.704 240.753 128.073 239.39 127.164C238.026 126.254 237.658 124.412 238.567 123.048C239.421 121.766 241.148 119.886 243.595 119.288C244.919 118.965 246.392 119.041 247.842 119.736C249.244 120.408 250.423 121.56 251.415 123.048C252.324 124.412 251.955 126.254 250.592 127.164C249.229 128.073 247.387 127.704 246.478 126.341C245.888 125.455 245.451 125.172 245.279 125.089C245.155 125.03 245.095 125.032 245.002 125.055C244.854 125.091 244.601 125.205 244.282 125.472Z" fill="black"/>
<path fill-rule="evenodd" clip-rule="evenodd" d="M114.841 197.522C116.318 193.658 117.128 189.464 117.128 185.081C117.128 165.849 101.543 150.258 82.3192 150.258C63.095 150.258 47.5107 165.849 47.5107 185.081C47.5107 189.108 48.194 192.976 49.4511 196.574C34.3365 200.37 23.1445 214.053 23.1445 230.352C23.1445 249.584 38.7288 265.175 57.953 265.175C66.5908 265.175 74.4938 262.027 80.5784 256.816C86.663 262.027 94.566 265.175 103.204 265.175C122.428 265.175 138.012 249.584 138.012 230.352C138.012 215.202 128.342 202.312 114.841 197.522Z" fill="#57BCF5"/>
<path d="M68.3955 202.493C68.3955 201.531 69.1747 200.752 70.1359 200.752C71.0971 200.752 71.8764 201.532 71.8764 202.493V204.234C71.8764 205.196 71.0971 205.975 70.1359 205.975C69.1747 205.975 68.3955 205.196 68.3955 204.234V202.493Z" fill="black"/>
<path d="M85.7998 202.493C85.7998 201.531 86.579 200.752 87.5402 200.752C88.5014 200.752 89.2807 201.532 89.2807 202.493V204.234C89.2807 205.196 88.5014 205.975 87.5402 205.975C86.579 205.975 85.7998 205.196 85.7998 204.234V202.493Z" fill="black"/>
<ellipse cx="78.8383" cy="212.07" rx="3.48085" ry="4.35292" fill="black"/>
<ellipse cx="359.701" cy="230.352" rx="34.8085" ry="34.8233" fill="#937CF1"/>
<rect x="344.037" y="221.646" width="3.48085" height="5.2235" rx="1.74043" fill="black"/>
<rect x="361.441" y="221.646" width="3.48085" height="5.2235" rx="1.74043" fill="black"/>
<path d="M347.518 232.093C349.258 234.414 354.479 237.665 361.441 232.093" stroke="black" stroke-width="1.5" stroke-linecap="round"/>
</svg>
