<svg width="936" height="441" viewBox="0 0 936 441" fill="none" xmlns="http://www.w3.org/2000/svg">
<g filter="url(#filter0_d_282_4942)">
<rect x="11.6124" y="93.9991" width="299" height="339" rx="23.5" transform="rotate(-15 11.6124 93.9991)" fill="white" stroke="#EDEDED"/>
<path d="M191.792 348.539L187.4 332.148L193.241 330.583C194.878 330.144 196.381 330.094 197.749 330.431C199.123 330.758 200.292 331.452 201.255 332.512C202.217 333.565 202.924 334.936 203.377 336.627C203.832 338.325 203.904 339.878 203.595 341.288C203.29 342.688 202.622 343.878 201.591 344.858C200.567 345.836 199.225 346.547 197.565 346.992L191.792 348.539ZM196.646 344.108C198.231 343.683 199.304 342.935 199.866 341.862C200.428 340.789 200.466 339.348 199.981 337.537C199.5 335.741 198.749 334.522 197.728 333.882C196.715 333.239 195.419 333.13 193.842 333.552L191.578 334.159L194.405 344.708L196.646 344.108ZM203.655 327.793L210.084 326.07C211.307 325.742 212.418 325.679 213.418 325.88C214.418 326.081 215.257 326.524 215.934 327.208C216.608 327.885 217.09 328.763 217.379 329.842C217.678 330.959 217.686 331.984 217.403 332.917C217.119 333.85 216.563 334.642 215.734 335.293L220.928 340.732L217.17 341.739L212.476 336.761L209.883 337.455L211.442 343.273L208.047 344.183L203.655 327.793ZM211.543 334.05C213.55 333.512 214.326 332.423 213.87 330.782C213.655 329.95 213.241 329.385 212.628 329.089C212.013 328.784 211.202 328.763 210.196 329.024L207.797 329.667L209.143 334.693L211.543 334.05ZM218.302 323.868L229.305 320.92L230.057 323.727L222.45 325.765L223.518 329.75L230.558 327.863L231.311 330.67L224.27 332.557L225.338 336.541L232.967 334.497L233.719 337.304L222.694 340.259L218.302 323.868ZM235.417 336.849L236.707 318.936L241.077 317.766L251.128 332.64L247.483 333.616L245.237 330.166L239.305 331.755L239.084 335.867L235.417 336.849ZM243.667 327.748L239.938 322.026L239.824 322.056L239.456 328.876L243.667 327.748ZM252.804 314.623L260.333 324.52L260.514 324.471L262.086 312.136L266.297 311.008L270.688 327.399L267.383 328.284L264.508 317.553L264.372 317.59L262.95 329.399L260.686 330.006L253.538 320.444L253.403 320.48L256.29 331.257L252.985 332.142L248.593 315.752L252.804 314.623Z" fill="#555555"/>
<circle cx="194.712" cy="199.711" r="45" transform="rotate(-15 194.712 199.711)" fill="#937CF1"/>
<rect x="179.002" y="192.274" width="4.5" height="6.75" rx="2.25" transform="rotate(-15 179.002 192.274)" fill="black"/>
<rect x="200.735" y="186.451" width="4.5" height="6.75" rx="2.25" transform="rotate(-15 200.735 186.451)" fill="black"/>
<ellipse cx="194.971" cy="200.677" rx="4" ry="3" transform="rotate(-15 194.971 200.677)" fill="black"/>
</g>
<g filter="url(#filter1_d_282_4942)">
<rect x="310.388" y="16.5" width="299" height="339" rx="23.5" fill="white" stroke="#EDEDED"/>
<path d="M428.603 292.031H432.118V299.062H439.478V292.031H443.017V309H439.478V301.969H432.118V309H428.603V292.031ZM461.415 300.516C461.415 302.32 461.071 303.879 460.384 305.191C459.696 306.504 458.751 307.508 457.548 308.203C456.353 308.891 455.001 309.234 453.493 309.234C451.978 309.234 450.618 308.891 449.415 308.203C448.212 307.508 447.267 306.504 446.579 305.191C445.892 303.871 445.548 302.312 445.548 300.516C445.548 298.711 445.892 297.152 446.579 295.84C447.267 294.527 448.212 293.527 449.415 292.84C450.618 292.145 451.978 291.797 453.493 291.797C455.001 291.797 456.353 292.145 457.548 292.84C458.751 293.527 459.696 294.527 460.384 295.84C461.071 297.152 461.415 298.711 461.415 300.516ZM449.134 300.516C449.134 301.703 449.31 302.719 449.661 303.562C450.021 304.398 450.528 305.031 451.185 305.461C451.841 305.891 452.61 306.109 453.493 306.117C454.368 306.109 455.13 305.891 455.778 305.461C456.435 305.023 456.938 304.387 457.29 303.551C457.649 302.715 457.829 301.703 457.829 300.516C457.829 299.328 457.649 298.316 457.29 297.48C456.938 296.637 456.435 296 455.778 295.57C455.13 295.141 454.368 294.922 453.493 294.914C452.61 294.922 451.841 295.141 451.185 295.57C450.528 296 450.021 296.637 449.661 297.48C449.31 298.316 449.134 299.328 449.134 300.516ZM463.946 292.031H470.603C471.86 292.031 472.946 292.273 473.86 292.758C474.774 293.242 475.47 293.918 475.946 294.785C476.431 295.645 476.673 296.633 476.673 297.75C476.673 298.883 476.427 299.883 475.935 300.75C475.45 301.609 474.743 302.277 473.813 302.754C472.892 303.23 471.79 303.469 470.509 303.469H467.462V309H463.946V292.031ZM469.946 300.633C470.962 300.633 471.731 300.375 472.255 299.859C472.786 299.336 473.048 298.633 473.04 297.75C473.048 296.883 472.786 296.195 472.255 295.688C471.731 295.18 470.962 294.922 469.946 294.914H467.462V300.633H469.946ZM478.899 292.031H490.29V294.938H482.415V299.062H489.704V301.969H482.415V306.094H490.313V309H478.899V292.031Z" fill="#555555"/>
<path fill-rule="evenodd" clip-rule="evenodd" d="M504.629 152.693C506.558 147.65 507.615 142.176 507.615 136.455C507.615 111.351 487.264 91 462.16 91C437.057 91 416.706 111.351 416.706 136.455C416.706 141.711 417.598 146.76 419.24 151.457C399.503 156.411 384.888 174.272 384.888 195.545C384.888 220.649 405.238 241 430.342 241C441.622 241 451.942 236.891 459.888 230.089C467.833 236.891 478.153 241 489.433 241C514.537 241 534.888 220.649 534.888 195.545C534.888 175.771 522.26 158.945 504.629 152.693Z" fill="#57BCF5"/>
<path d="M443.979 159.182C443.979 157.927 444.996 156.909 446.251 156.909C447.506 156.909 448.524 157.927 448.524 159.182V161.455C448.524 162.71 447.506 163.727 446.251 163.727C444.996 163.727 443.979 162.71 443.979 161.455V159.182Z" fill="black"/>
<path d="M466.706 159.182C466.706 157.927 467.724 156.909 468.979 156.909C470.234 156.909 471.252 157.927 471.252 159.182V161.455C471.252 162.71 470.234 163.727 468.979 163.727C467.724 163.727 466.706 162.71 466.706 161.455V159.182Z" fill="black"/>
<path fill-rule="evenodd" clip-rule="evenodd" d="M447.401 171.535C448.11 170.915 449.187 170.987 449.807 171.695C450.922 172.97 453.086 174.546 455.82 175C458.462 175.439 461.835 174.867 465.573 171.544C466.277 170.918 467.354 170.982 467.98 171.685C468.605 172.389 468.542 173.466 467.838 174.092C463.395 178.041 459.002 178.985 455.262 178.363C451.613 177.757 448.777 175.696 447.241 173.94C446.621 173.232 446.693 172.155 447.401 171.535Z" fill="black"/>
</g>
<g filter="url(#filter2_d_282_4942)">
<rect x="627.352" y="16.6124" width="299" height="339" rx="23.5" transform="rotate(15 627.352 16.6124)" fill="white" stroke="#EDEDED"/>
<path d="M663.204 311.47L666.6 312.379L662.96 325.963L670.024 327.855L669.271 330.663L658.812 327.86L663.204 311.47ZM689.42 318.494L686.569 329.134C686.251 330.319 685.688 331.288 684.88 332.042C684.071 332.796 683.087 333.285 681.927 333.508C680.77 333.723 679.519 333.651 678.176 333.291C676.833 332.931 675.714 332.369 674.819 331.603C673.933 330.832 673.329 329.918 673.006 328.861C672.69 327.806 672.691 326.686 673.008 325.501L675.859 314.86L679.255 315.77L676.477 326.139C676.309 326.765 676.298 327.365 676.444 327.938C676.599 328.505 676.892 328.996 677.323 329.411C677.761 329.828 678.312 330.125 678.977 330.303C679.648 330.483 680.278 330.502 680.866 330.36C681.454 330.219 681.949 329.939 682.352 329.521C682.765 329.098 683.055 328.573 683.223 327.947L686.002 317.578L689.42 318.494ZM701.61 327.875C701.715 326.941 701.517 326.127 701.015 325.435C700.513 324.742 699.78 324.263 698.816 323.996C697.961 323.775 697.157 323.79 696.402 324.041C695.655 324.294 694.998 324.781 694.433 325.503C693.87 326.217 693.436 327.141 693.133 328.273C692.823 329.427 692.734 330.455 692.865 331.355C693.003 332.258 693.33 333 693.845 333.583C694.368 334.168 695.051 334.578 695.894 334.812C696.839 335.057 697.702 335.021 698.482 334.704C699.265 334.38 699.853 333.802 700.246 332.969L703.681 333.914C703.275 334.913 702.653 335.773 701.812 336.494C700.972 337.216 699.967 337.707 698.797 337.967C697.629 338.221 696.377 338.168 695.042 337.81C693.57 337.416 692.346 336.732 691.37 335.759C690.402 334.78 689.76 333.569 689.444 332.125C689.129 330.674 689.204 329.08 689.669 327.344C690.136 325.601 690.868 324.184 691.864 323.092C692.868 322.002 694.036 321.28 695.368 320.925C696.703 320.563 698.099 320.577 699.555 320.967C700.815 321.305 701.892 321.844 702.785 322.585C703.679 323.326 704.323 324.226 704.718 325.287C705.121 326.349 705.232 327.519 705.052 328.797L701.61 327.875ZM708.957 323.729L712.353 324.639L710.406 331.906L710.632 331.967L718.534 326.295L722.631 327.393L714.553 333.09L718.307 343.802L714.232 342.71L711.496 334.722L709.217 336.343L707.961 341.03L704.565 340.12L708.957 323.729ZM727.159 328.606L729.047 336.683L729.206 336.725L734.856 330.669L738.682 331.694L729.879 340.642L728.314 346.483L724.918 345.573L726.483 339.732L723.333 327.581L727.159 328.606Z" fill="#555555"/>
<path fill-rule="evenodd" clip-rule="evenodd" d="M749.652 137.806C759.087 133.292 770.119 131.994 781.015 134.914C805.263 141.411 819.653 166.336 813.156 190.584C810.236 201.479 803.597 210.385 794.97 216.299C799.484 225.734 800.781 236.766 797.862 247.662C791.365 271.91 766.44 286.3 742.192 279.803C731.296 276.883 722.391 270.244 716.477 261.617C707.041 266.131 696.01 267.428 685.114 264.509C660.866 258.012 646.476 233.087 652.973 208.839C655.892 197.943 662.532 189.038 671.159 183.124C666.645 173.689 665.347 162.657 668.267 151.761C674.764 127.513 699.689 113.123 723.937 119.62C734.832 122.539 743.737 129.179 749.652 137.806Z" fill="#29E0BF"/>
<path d="M719.462 189.008C719.786 187.795 721.033 187.076 722.245 187.401C723.458 187.726 724.177 188.972 723.852 190.184L723.264 192.38C722.939 193.592 721.693 194.311 720.48 193.987C719.268 193.662 718.548 192.415 718.873 191.203L719.462 189.008Z" fill="black"/>
<path fill-rule="evenodd" clip-rule="evenodd" d="M719.571 201.827C720.416 201.411 721.438 201.759 721.853 202.604C722.601 204.124 724.283 206.206 726.807 207.352C729.245 208.46 732.65 208.781 737.122 206.538C737.963 206.116 738.987 206.456 739.409 207.298C739.831 208.139 739.491 209.164 738.65 209.586C733.336 212.251 728.849 212.025 725.396 210.456C722.029 208.926 719.823 206.202 718.794 204.108C718.378 203.264 718.727 202.242 719.571 201.827Z" fill="black"/>
<path fill-rule="evenodd" clip-rule="evenodd" d="M742.807 196.902C742.594 197 742.393 197.138 742.246 197.268C741.539 197.889 740.462 197.82 739.84 197.113C739.219 196.406 739.288 195.329 739.995 194.707C740.66 194.123 741.898 193.337 743.345 193.369C744.128 193.387 744.934 193.648 745.635 194.249C746.314 194.83 746.796 195.645 747.126 196.618C747.427 197.509 746.949 198.477 746.057 198.779C745.165 199.08 744.198 198.602 743.896 197.71C743.7 197.131 743.5 196.909 743.417 196.838C743.357 196.786 743.323 196.779 743.269 196.777C743.181 196.775 743.024 196.801 742.807 196.902Z" fill="black"/>
</g>
<defs>
<filter id="filter0_d_282_4942" x="0.387695" y="5.3877" width="407.001" height="435.285" filterUnits="userSpaceOnUse" color-interpolation-filters="sRGB">
<feFlood flood-opacity="0" result="BackgroundImageFix"/>
<feColorMatrix in="SourceAlpha" type="matrix" values="0 0 0 0 0 0 0 0 0 0 0 0 0 0 0 0 0 0 127 0" result="hardAlpha"/>
<feOffset dx="4" dy="4"/>
<feGaussianBlur stdDeviation="10"/>
<feComposite in2="hardAlpha" operator="out"/>
<feColorMatrix type="matrix" values="0 0 0 0 0 0 0 0 0 0 0 0 0 0 0 0 0 0 0.04 0"/>
<feBlend mode="normal" in2="BackgroundImageFix" result="effect1_dropShadow_282_4942"/>
<feBlend mode="normal" in="SourceGraphic" in2="effect1_dropShadow_282_4942" result="shape"/>
</filter>
<filter id="filter1_d_282_4942" x="293.888" y="0" width="340" height="380" filterUnits="userSpaceOnUse" color-interpolation-filters="sRGB">
<feFlood flood-opacity="0" result="BackgroundImageFix"/>
<feColorMatrix in="SourceAlpha" type="matrix" values="0 0 0 0 0 0 0 0 0 0 0 0 0 0 0 0 0 0 127 0" result="hardAlpha"/>
<feOffset dx="4" dy="4"/>
<feGaussianBlur stdDeviation="10"/>
<feComposite in2="hardAlpha" operator="out"/>
<feColorMatrix type="matrix" values="0 0 0 0 0 0 0 0 0 0 0 0 0 0 0 0 0 0 0.04 0"/>
<feBlend mode="normal" in2="BackgroundImageFix" result="effect1_dropShadow_282_4942"/>
<feBlend mode="normal" in="SourceGraphic" in2="effect1_dropShadow_282_4942" result="shape"/>
</filter>
<filter id="filter2_d_282_4942" x="528.388" y="5.3877" width="407" height="435.285" filterUnits="userSpaceOnUse" color-interpolation-filters="sRGB">
<feFlood flood-opacity="0" result="BackgroundImageFix"/>
<feColorMatrix in="SourceAlpha" type="matrix" values="0 0 0 0 0 0 0 0 0 0 0 0 0 0 0 0 0 0 127 0" result="hardAlpha"/>
<feOffset dx="4" dy="4"/>
<feGaussianBlur stdDeviation="10"/>
<feComposite in2="hardAlpha" operator="out"/>
<feColorMatrix type="matrix" values="0 0 0 0 0 0 0 0 0 0 0 0 0 0 0 0 0 0 0.04 0"/>
<feBlend mode="normal" in2="BackgroundImageFix" result="effect1_dropShadow_282_4942"/>
<feBlend mode="normal" in="SourceGraphic" in2="effect1_dropShadow_282_4942" result="shape"/>
</filter>
</defs>
</svg>
