<svg width="148" height="110" viewBox="0 0 148 110" fill="none" xmlns="http://www.w3.org/2000/svg">
<path d="M4.12988 74.8965C4.72233 74.8965 5.25098 75.0719 5.71582 75.4229C6.18066 75.7692 6.54297 76.2637 6.80273 76.9062C7.06706 77.5443 7.2015 78.2871 7.20605 79.1348C7.2015 79.9824 7.06706 80.7275 6.80273 81.3701C6.54297 82.0081 6.18066 82.5003 5.71582 82.8467C5.25098 83.1885 4.72233 83.3594 4.12988 83.3594C3.53288 83.3594 3.00195 83.1885 2.53711 82.8467C2.07227 82.5003 1.70996 82.0081 1.4502 81.3701C1.19499 80.7321 1.06738 79.987 1.06738 79.1348C1.06738 78.2871 1.19499 77.5443 1.4502 76.9062C1.70996 76.2637 2.07227 75.7692 2.53711 75.4229C3.00195 75.0719 3.53288 74.8965 4.12988 74.8965ZM2.0791 79.1348C2.0791 79.7865 2.16569 80.3607 2.33887 80.8574C2.5166 81.3496 2.76042 81.7301 3.07031 81.999C3.38021 82.2679 3.7334 82.4023 4.12988 82.4023C4.53092 82.4023 4.88411 82.2679 5.18945 81.999C5.49935 81.7301 5.73861 81.3496 5.90723 80.8574C6.0804 80.3607 6.16699 79.7865 6.16699 79.1348C6.16699 78.4831 6.0804 77.9111 5.90723 77.4189C5.73861 76.9222 5.49935 76.5371 5.18945 76.2637C4.88411 75.9902 4.53092 75.8535 4.12988 75.8535C3.7334 75.8535 3.38021 75.9902 3.07031 76.2637C2.76042 76.5371 2.5166 76.9222 2.33887 77.4189C2.16569 77.9111 2.0791 78.4831 2.0791 79.1348ZM9.21582 73.9531H10.2822V78.8066H12.3193V79.7363H10.2822V86.1074H9.21582V73.9531ZM17.3506 76.209C17.3506 76.7467 17.4827 77.264 17.7471 77.7607C18.016 78.2529 18.3851 78.6882 18.8545 79.0664C19.3285 79.4447 19.8662 79.7318 20.4678 79.9277L19.9209 80.7617C19.2145 80.5202 18.5924 80.1602 18.0547 79.6816C17.5169 79.2031 17.109 78.6426 16.8311 78C16.5622 78.6927 16.1566 79.3011 15.6143 79.8252C15.0719 80.3447 14.4385 80.7344 13.7139 80.9941L13.1533 80.1602C13.7594 79.946 14.2972 79.6383 14.7666 79.2373C15.236 78.8363 15.6029 78.3737 15.8672 77.8496C16.1361 77.321 16.2705 76.7741 16.2705 76.209V75.6895H13.4268V74.8145H20.1533V75.6895H17.3506V76.209ZM14.835 81.9512H23.0107V86.1074H21.9443V82.8398H14.835V81.9512ZM21.9443 73.9531H23.0107V81.3086H21.9443V73.9531ZM32.7041 76.209C32.7041 76.7422 32.8294 77.2549 33.0801 77.7471C33.3307 78.2393 33.6816 78.6745 34.1328 79.0527C34.584 79.431 35.1058 79.7227 35.6982 79.9277L35.1514 80.7617C34.4587 80.5156 33.8548 80.1556 33.3398 79.6816C32.8294 79.2077 32.4443 78.654 32.1846 78.0205C31.9248 78.7087 31.5283 79.3125 30.9951 79.832C30.4619 80.347 29.8376 80.7344 29.1221 80.9941L28.5479 80.1602C29.1494 79.946 29.6849 79.6406 30.1543 79.2441C30.6237 78.8431 30.9883 78.3805 31.248 77.8564C31.5124 77.3324 31.6468 76.7832 31.6514 76.209V75.6895H28.876V74.8145H35.4385V75.6895H32.7041V76.209ZM30.1338 81.9238H38.0908V86.1074H37.0244V82.7988H30.1338V81.9238ZM37.0244 73.9531H38.0908V77.166H39.9229V78.082H38.0908V81.2812H37.0244V73.9531ZM44.8721 75.8672C44.8675 76.4368 44.9906 76.9792 45.2412 77.4941C45.4964 78.0091 45.8519 78.4626 46.3076 78.8545C46.7633 79.2419 47.2874 79.5358 47.8799 79.7363L47.2783 80.5703C46.6084 80.3197 46.0205 79.9551 45.5146 79.4766C45.0088 78.998 44.6237 78.4398 44.3594 77.8018C44.0996 78.5309 43.7008 79.1667 43.1631 79.709C42.6299 80.2513 41.9964 80.6615 41.2627 80.9395L40.6748 80.0645C41.2946 79.8457 41.8392 79.5312 42.3086 79.1211C42.7826 78.7064 43.1494 78.2233 43.4092 77.6719C43.6689 77.1159 43.8011 76.528 43.8057 75.9082V74.6504H44.8721V75.8672ZM42.6572 83.8105C42.6572 83.3275 42.819 82.915 43.1426 82.5732C43.4707 82.2269 43.9401 81.9648 44.5508 81.7871C45.1615 81.6048 45.8883 81.5137 46.7314 81.5137C47.57 81.5137 48.2946 81.6048 48.9053 81.7871C49.516 81.9648 49.9854 82.2269 50.3135 82.5732C50.6416 82.915 50.8057 83.3275 50.8057 83.8105C50.8057 84.2891 50.6416 84.6969 50.3135 85.0342C49.9854 85.376 49.516 85.6357 48.9053 85.8135C48.2946 85.9912 47.57 86.0801 46.7314 86.0801C45.8883 86.0801 45.1615 85.9912 44.5508 85.8135C43.9401 85.6357 43.4707 85.376 43.1426 85.0342C42.819 84.6969 42.6572 84.2891 42.6572 83.8105ZM43.7236 83.8105C43.7236 84.0977 43.8421 84.3483 44.0791 84.5625C44.3161 84.7721 44.6579 84.9339 45.1045 85.0479C45.5557 85.1618 46.0866 85.2188 46.6973 85.2188C47.3216 85.2188 47.8617 85.1618 48.3174 85.0479C48.7731 84.9385 49.124 84.779 49.3701 84.5693C49.6162 84.3551 49.7393 84.1022 49.7393 83.8105C49.7393 83.5098 49.6185 83.2523 49.377 83.0381C49.1354 82.8193 48.7868 82.653 48.3311 82.5391C47.8799 82.4206 47.3467 82.3613 46.7314 82.3613C46.1117 82.3613 45.5739 82.4206 45.1182 82.5391C44.667 82.653 44.3206 82.8193 44.0791 83.0381C43.8421 83.2523 43.7236 83.5098 43.7236 83.8105ZM46.9775 76.5645H49.6846V73.9531H50.7646V81.1582H49.6846V77.4531H46.9775V76.5645ZM59.8564 78.8203H57.3955V80.5156C58.5758 80.4655 59.6833 80.3835 60.7178 80.2695L60.7998 81.0625C58.6943 81.3542 56.0967 81.5 53.0068 81.5L52.8428 80.625C54.2054 80.6159 55.3675 80.5954 56.3291 80.5635V78.8203H53.9502V74.7461H59.7607V75.6348H55.0303V77.9453H59.8564V78.8203ZM54.9209 82.4297H55.9873V84.9453H63.2061V85.8477H54.9209V82.4297ZM61.7295 73.9668H62.8096V83.0586H61.7295V73.9668ZM78.3682 86.1074H77.3018V73.9531H78.3682V86.1074ZM68.4697 82.8672C69.9782 82.8581 71.1312 82.8398 71.9287 82.8125V81.4863C71.4411 81.4362 71.0173 81.3154 70.6572 81.124C70.2972 80.9281 70.0192 80.6729 69.8232 80.3584C69.6273 80.0439 69.5316 79.6862 69.5361 79.2852C69.5316 78.834 69.6501 78.4375 69.8916 78.0957C70.1331 77.7539 70.4749 77.4919 70.917 77.3096C71.359 77.1227 71.8695 77.0293 72.4482 77.0293C73.0316 77.0293 73.5443 77.1227 73.9863 77.3096C74.4329 77.4919 74.777 77.7539 75.0186 78.0957C75.2646 78.4375 75.3877 78.834 75.3877 79.2852C75.3877 79.6816 75.2897 80.0371 75.0938 80.3516C74.9023 80.6615 74.6266 80.9144 74.2666 81.1104C73.9066 81.3063 73.4873 81.4316 73.0088 81.4863V82.7715C74.3805 82.7077 75.5426 82.612 76.4951 82.4844L76.5771 83.3047C75.3695 83.5007 74.1139 83.6305 72.8105 83.6943C71.5072 83.7536 70.1149 83.7832 68.6338 83.7832L68.4697 82.8672ZM68.7295 75.457H71.9287V73.9668H73.0088V75.457H76.1807V76.332H68.7295V75.457ZM70.5342 79.2852C70.5342 79.5632 70.6139 79.807 70.7734 80.0166C70.9329 80.2262 71.1585 80.388 71.4502 80.502C71.7419 80.6159 72.0745 80.6706 72.4482 80.666C72.8219 80.6706 73.1546 80.6159 73.4463 80.502C73.738 80.388 73.9635 80.2262 74.123 80.0166C74.2826 79.807 74.3623 79.5632 74.3623 79.2852C74.3623 79.0072 74.2826 78.7611 74.123 78.5469C73.9635 78.3281 73.738 78.1595 73.4463 78.041C73.1546 77.9225 72.8219 77.8633 72.4482 77.8633C72.0745 77.8633 71.7419 77.9225 71.4502 78.041C71.1631 78.1595 70.9375 78.3281 70.7734 78.5469C70.6139 78.7611 70.5342 79.0072 70.5342 79.2852ZM90.249 76.4004V76.5508C90.2399 77.5579 90.208 78.458 90.1533 79.251C90.1032 80.0439 89.9847 80.9622 89.7979 82.0059L88.7041 81.8828C88.8454 81.1628 88.9479 80.486 89.0117 79.8525C89.0801 79.2145 89.1211 78.6517 89.1348 78.1641C89.153 77.6764 89.1644 77.0885 89.1689 76.4004V76.0723H81.6768V75.1836H90.249V76.4004ZM80.501 83.4961H84.8486V79.1484H85.9014V83.4961H91.5752V84.3848H80.501V83.4961ZM102.007 78.9023H103.976V79.8047H102.007V86.1074H100.94V73.9531H102.007V78.9023ZM92.6826 82.9492C94.2412 82.1745 95.4489 81.2129 96.3057 80.0645C97.1624 78.916 97.6523 77.6172 97.7754 76.168H93.2432V75.2656H98.8623C98.8577 77.0703 98.402 78.7087 97.4951 80.1807C96.5882 81.6527 95.1846 82.8581 93.2842 83.7969L92.6826 82.9492ZM110.634 82.6074H112.849V81.0898H113.847V85.9434H109.622V81.0898H110.634V82.6074ZM108.405 77.2891C108.405 76.7422 108.537 76.2591 108.802 75.8398C109.071 75.416 109.444 75.0879 109.923 74.8555C110.406 74.6185 110.953 74.5 111.563 74.5C112.101 74.5 112.591 74.5957 113.033 74.7871C113.48 74.9785 113.844 75.252 114.127 75.6074C114.41 75.9583 114.59 76.3639 114.667 76.8242H117.21V73.9531H118.29V80.3926H117.21V77.7129H114.674C114.605 78.1868 114.428 78.6038 114.141 78.9639C113.858 79.3239 113.493 79.6019 113.047 79.7979C112.6 79.9938 112.106 80.0918 111.563 80.0918C110.953 80.0918 110.406 79.9756 109.923 79.7432C109.444 79.5062 109.071 79.1758 108.802 78.752C108.537 78.3236 108.405 77.8359 108.405 77.2891ZM109.431 77.2891C109.431 77.6582 109.522 77.9886 109.704 78.2803C109.886 78.5674 110.139 78.793 110.463 78.957C110.786 79.1211 111.153 79.2031 111.563 79.2031C111.965 79.2031 112.325 79.1211 112.644 78.957C112.967 78.793 113.218 78.5651 113.396 78.2734C113.578 77.9818 113.669 77.6536 113.669 77.2891C113.669 76.9245 113.578 76.5986 113.396 76.3115C113.218 76.0244 112.969 75.8011 112.65 75.6416C112.331 75.4821 111.969 75.4023 111.563 75.4023C111.153 75.4023 110.786 75.4821 110.463 75.6416C110.139 75.8011 109.886 76.0244 109.704 76.3115C109.522 76.5986 109.431 76.9245 109.431 77.2891ZM112.849 85.0957V83.4277H110.634V85.0957H112.849ZM114.011 85.2188C114.485 85.0228 114.888 84.7562 115.221 84.4189C115.558 84.0771 115.813 83.7012 115.986 83.291C116.16 82.8809 116.248 82.4661 116.253 82.0469V81.0078H117.319V82.0469C117.315 82.4798 117.397 82.9059 117.565 83.3252C117.739 83.7445 117.994 84.1204 118.331 84.4531C118.673 84.7858 119.083 85.041 119.562 85.2188L119.001 86.0391C118.459 85.8249 118.001 85.5173 117.627 85.1162C117.253 84.7152 116.968 84.2526 116.772 83.7285C116.576 84.2389 116.289 84.6947 115.911 85.0957C115.537 85.5013 115.091 85.8158 114.571 86.0391L114.011 85.2188ZM121.981 82.0879C122.715 82.0788 123.399 82.0469 124.032 81.9922C124.666 81.9329 125.322 81.8327 126.001 81.6914L126.151 82.6211C125.404 82.7806 124.684 82.8877 123.991 82.9424C123.299 82.9971 122.528 83.0267 121.681 83.0312H120.915V75.2793H121.981V82.0879ZM124.319 78.0547H127.095V74.2539H128.12V85.4922H127.095V78.9434H124.319V78.0547ZM129.692 73.9531H130.718V86.1074H129.692V73.9531ZM143.542 84.5488H132.413V83.6465H135.175V80.3721C134.646 80.0986 134.236 79.7454 133.944 79.3125C133.653 78.8796 133.507 78.3919 133.507 77.8496C133.507 77.2344 133.696 76.6898 134.074 76.2158C134.452 75.7419 134.977 75.375 135.646 75.1152C136.321 74.8555 137.089 74.7233 137.95 74.7188C138.812 74.7233 139.577 74.8555 140.247 75.1152C140.922 75.375 141.448 75.7419 141.826 76.2158C142.204 76.6898 142.394 77.2344 142.394 77.8496C142.394 78.3828 142.252 78.8636 141.97 79.292C141.687 79.7158 141.291 80.0645 140.78 80.3379V83.6465H143.542V84.5488ZM134.546 77.8496C134.546 78.2962 134.689 78.6927 134.977 79.0391C135.264 79.3809 135.665 79.6475 136.18 79.8389C136.699 80.0257 137.289 80.1191 137.95 80.1191C138.606 80.1191 139.192 80.0257 139.707 79.8389C140.222 79.6475 140.625 79.3809 140.917 79.0391C141.209 78.6927 141.354 78.2962 141.354 77.8496C141.354 77.403 141.209 77.0088 140.917 76.667C140.625 76.3252 140.222 76.0632 139.707 75.8809C139.192 75.694 138.606 75.6029 137.95 75.6074C137.289 75.6029 136.699 75.694 136.18 75.8809C135.665 76.0632 135.264 76.3252 134.977 76.667C134.689 77.0088 134.546 77.403 134.546 77.8496ZM139.7 83.6465V80.7549C139.158 80.8962 138.575 80.9668 137.95 80.9668C137.321 80.9668 136.747 80.8984 136.228 80.7617V83.6465H139.7ZM146.386 82.2109H145.237L145.142 75.1016H146.481L146.386 82.2109ZM144.937 84.1934C144.932 84.0384 144.968 83.8949 145.046 83.7627C145.128 83.626 145.235 83.5189 145.367 83.4414C145.504 83.3594 145.652 83.3184 145.812 83.3184C145.966 83.3184 146.11 83.3571 146.242 83.4346C146.379 83.512 146.486 83.6169 146.563 83.749C146.646 83.8812 146.687 84.0247 146.687 84.1797C146.687 84.4258 146.602 84.6377 146.434 84.8154C146.265 84.9886 146.058 85.0775 145.812 85.082C145.652 85.082 145.504 85.041 145.367 84.959C145.235 84.877 145.128 84.7699 145.046 84.6377C144.968 84.501 144.932 84.3529 144.937 84.1934ZM26.4766 106.107H25.4102V93.9531H26.4766V106.107ZM16.5781 102.867C18.0866 102.858 19.2396 102.84 20.0371 102.812V101.486C19.5495 101.436 19.1257 101.315 18.7656 101.124C18.4056 100.928 18.1276 100.673 17.9316 100.358C17.7357 100.044 17.64 99.6862 17.6445 99.2852C17.64 98.834 17.7585 98.4375 18 98.0957C18.2415 97.7539 18.5833 97.4919 19.0254 97.3096C19.4674 97.1227 19.9779 97.0293 20.5566 97.0293C21.14 97.0293 21.6527 97.1227 22.0947 97.3096C22.5413 97.4919 22.8854 97.7539 23.127 98.0957C23.373 98.4375 23.4961 98.834 23.4961 99.2852C23.4961 99.6816 23.3981 100.037 23.2021 100.352C23.0107 100.661 22.735 100.914 22.375 101.11C22.015 101.306 21.5957 101.432 21.1172 101.486V102.771C22.4889 102.708 23.651 102.612 24.6035 102.484L24.6855 103.305C23.4779 103.501 22.2223 103.631 20.9189 103.694C19.6156 103.754 18.2233 103.783 16.7422 103.783L16.5781 102.867ZM16.8379 95.457H20.0371V93.9668H21.1172V95.457H24.2891V96.332H16.8379V95.457ZM18.6426 99.2852C18.6426 99.5632 18.7223 99.807 18.8818 100.017C19.0413 100.226 19.2669 100.388 19.5586 100.502C19.8503 100.616 20.1829 100.671 20.5566 100.666C20.9303 100.671 21.263 100.616 21.5547 100.502C21.8464 100.388 22.0719 100.226 22.2314 100.017C22.391 99.807 22.4707 99.5632 22.4707 99.2852C22.4707 99.0072 22.391 98.7611 22.2314 98.5469C22.0719 98.3281 21.8464 98.1595 21.5547 98.041C21.263 97.9225 20.9303 97.8633 20.5566 97.8633C20.1829 97.8633 19.8503 97.9225 19.5586 98.041C19.2715 98.1595 19.0459 98.3281 18.8818 98.5469C18.7223 98.7611 18.6426 99.0072 18.6426 99.2852ZM38.3574 96.4004V96.5508C38.3483 97.5579 38.3164 98.458 38.2617 99.251C38.2116 100.044 38.0931 100.962 37.9062 102.006L36.8125 101.883C36.9538 101.163 37.0563 100.486 37.1201 99.8525C37.1885 99.2145 37.2295 98.6517 37.2432 98.1641C37.2614 97.6764 37.2728 97.0885 37.2773 96.4004V96.0723H29.7852V95.1836H38.3574V96.4004ZM28.6094 103.496H32.957V99.1484H34.0098V103.496H39.6836V104.385H28.6094V103.496ZM51.8242 100.447H40.6953V99.5996H51.8242V100.447ZM42.0352 101.418H50.4297V104.002H43.1289V105.164H50.8262V105.943H42.0488V103.264H49.3633V102.225H42.0352V101.418ZM42.1035 94.3223H50.3887V96.8379H43.2109V97.9043H50.6074V98.6836H42.1445V96.0996H49.3086V95.1016H42.1035V94.3223ZM60.4375 96.209C60.4375 96.7422 60.5628 97.2549 60.8135 97.7471C61.0641 98.2393 61.415 98.6745 61.8662 99.0527C62.3174 99.431 62.8392 99.7227 63.4316 99.9277L62.8848 100.762C62.1921 100.516 61.5882 100.156 61.0732 99.6816C60.5628 99.2077 60.1777 98.654 59.918 98.0205C59.6582 98.7087 59.2617 99.3125 58.7285 99.832C58.1953 100.347 57.571 100.734 56.8555 100.994L56.2812 100.16C56.8828 99.946 57.4183 99.6406 57.8877 99.2441C58.3571 98.8431 58.7217 98.3805 58.9814 97.8564C59.2458 97.3324 59.3802 96.7832 59.3848 96.209V95.6895H56.6094V94.8145H63.1719V95.6895H60.4375V96.209ZM57.8672 101.924H65.8242V106.107H64.7578V102.799H57.8672V101.924ZM64.7578 93.9531H65.8242V97.166H67.6562V98.082H65.8242V101.281H64.7578V93.9531ZM72.6055 95.8672C72.6009 96.4368 72.724 96.9792 72.9746 97.4941C73.2298 98.0091 73.5853 98.4626 74.041 98.8545C74.4967 99.2419 75.0208 99.5358 75.6133 99.7363L75.0117 100.57C74.3418 100.32 73.7539 99.9551 73.248 99.4766C72.7422 98.998 72.3571 98.4398 72.0928 97.8018C71.833 98.5309 71.4342 99.1667 70.8965 99.709C70.3633 100.251 69.7298 100.661 68.9961 100.939L68.4082 100.064C69.028 99.8457 69.5726 99.5312 70.042 99.1211C70.516 98.7064 70.8828 98.2233 71.1426 97.6719C71.4023 97.1159 71.5345 96.528 71.5391 95.9082V94.6504H72.6055V95.8672ZM70.3906 103.811C70.3906 103.327 70.5524 102.915 70.876 102.573C71.2041 102.227 71.6735 101.965 72.2842 101.787C72.8949 101.605 73.6217 101.514 74.4648 101.514C75.3034 101.514 76.028 101.605 76.6387 101.787C77.2493 101.965 77.7188 102.227 78.0469 102.573C78.375 102.915 78.5391 103.327 78.5391 103.811C78.5391 104.289 78.375 104.697 78.0469 105.034C77.7188 105.376 77.2493 105.636 76.6387 105.813C76.028 105.991 75.3034 106.08 74.4648 106.08C73.6217 106.08 72.8949 105.991 72.2842 105.813C71.6735 105.636 71.2041 105.376 70.876 105.034C70.5524 104.697 70.3906 104.289 70.3906 103.811ZM71.457 103.811C71.457 104.098 71.5755 104.348 71.8125 104.562C72.0495 104.772 72.3913 104.934 72.8379 105.048C73.2891 105.162 73.82 105.219 74.4307 105.219C75.055 105.219 75.5951 105.162 76.0508 105.048C76.5065 104.938 76.8574 104.779 77.1035 104.569C77.3496 104.355 77.4727 104.102 77.4727 103.811C77.4727 103.51 77.3519 103.252 77.1104 103.038C76.8688 102.819 76.5202 102.653 76.0645 102.539C75.6133 102.421 75.0801 102.361 74.4648 102.361C73.8451 102.361 73.3073 102.421 72.8516 102.539C72.4004 102.653 72.054 102.819 71.8125 103.038C71.5755 103.252 71.457 103.51 71.457 103.811ZM74.7109 96.5645H77.418V93.9531H78.498V101.158H77.418V97.4531H74.7109V96.5645ZM86.5918 96.9336H80.4941V96.0586H83.0234V94.3223H84.0898V96.0586H86.5918V96.9336ZM80.9316 100.516C80.9316 99.987 81.0433 99.513 81.2666 99.0938C81.4945 98.6745 81.8066 98.3464 82.2031 98.1094C82.5996 97.8724 83.0462 97.7539 83.543 97.7539C84.0488 97.7539 84.5 97.8724 84.8965 98.1094C85.2975 98.3464 85.6097 98.6745 85.833 99.0938C86.0609 99.5085 86.1771 99.9824 86.1816 100.516C86.1771 101.053 86.0609 101.534 85.833 101.958C85.6097 102.377 85.2975 102.708 84.8965 102.949C84.5 103.186 84.0488 103.305 83.543 103.305C83.0462 103.305 82.5973 103.186 82.1963 102.949C81.7998 102.708 81.4899 102.377 81.2666 101.958C81.0433 101.534 80.9316 101.053 80.9316 100.516ZM81.8887 100.516C81.8887 100.871 81.9593 101.19 82.1006 101.473C82.2419 101.751 82.4378 101.969 82.6885 102.129C82.9391 102.284 83.224 102.361 83.543 102.361C83.862 102.361 84.1491 102.284 84.4043 102.129C84.6595 101.969 84.86 101.751 85.0059 101.473C85.1517 101.19 85.2246 100.871 85.2246 100.516C85.2246 100.165 85.1517 99.8503 85.0059 99.5723C84.86 99.2897 84.6595 99.0687 84.4043 98.9092C84.1491 98.7451 83.862 98.6608 83.543 98.6562C83.224 98.6608 82.9391 98.7451 82.6885 98.9092C82.4378 99.0687 82.2419 99.2897 82.1006 99.5723C81.9593 99.8503 81.8887 100.165 81.8887 100.516ZM87.2207 94.2539H88.2324V99.0801H89.8457V93.9531H90.8711V106.107H89.8457V99.9688H88.2324V105.506H87.2207V94.2539ZM98.7598 95.6758C98.7598 96.1953 98.9626 96.6921 99.3682 97.166C99.7783 97.6354 100.314 98.0319 100.975 98.3555C101.635 98.679 102.324 98.8932 103.039 98.998L102.643 99.8457C102 99.7363 101.382 99.554 100.79 99.2988C100.198 99.0391 99.6689 98.7178 99.2041 98.335C98.7438 97.9521 98.3952 97.5238 98.1582 97.0498C97.9212 97.5238 97.5726 97.9521 97.1123 98.335C96.652 98.7178 96.1257 99.0391 95.5332 99.2988C94.9453 99.554 94.3346 99.7363 93.7012 99.8457L93.2773 98.998C93.9928 98.8932 94.6787 98.679 95.335 98.3555C95.9912 98.0319 96.5244 97.6354 96.9346 97.166C97.3493 96.6921 97.5566 96.1953 97.5566 95.6758V95.5938H93.6602V94.7188H102.643V95.5938H98.7598V95.6758ZM92.6211 100.885H103.695V101.773H98.6641V106.107H97.6113V101.773H92.6211V100.885ZM108.33 97.4121C108.33 98.0638 108.433 98.7132 108.638 99.3604C108.843 100.003 109.137 100.591 109.52 101.124C109.907 101.657 110.363 102.079 110.887 102.389L110.271 103.223C109.697 102.876 109.201 102.398 108.781 101.787C108.367 101.176 108.05 100.491 107.831 99.7295C107.603 100.554 107.268 101.295 106.826 101.951C106.384 102.607 105.865 103.118 105.268 103.482L104.584 102.676C105.131 102.357 105.609 101.922 106.02 101.37C106.43 100.814 106.744 100.197 106.963 99.5176C107.182 98.8385 107.291 98.1504 107.291 97.4531V95.1016H108.33V97.4121ZM109.547 98.3145H111.611V94.2129H112.623V105.492H111.611V99.2305H109.547V98.3145ZM114.1 93.9531H115.139V106.107H114.1V93.9531ZM127.949 104.549H116.82V103.646H119.582V100.372C119.053 100.099 118.643 99.7454 118.352 99.3125C118.06 98.8796 117.914 98.3919 117.914 97.8496C117.914 97.2344 118.103 96.6898 118.481 96.2158C118.86 95.7419 119.384 95.375 120.054 95.1152C120.728 94.8555 121.496 94.7233 122.357 94.7188C123.219 94.7233 123.984 94.8555 124.654 95.1152C125.329 95.375 125.855 95.7419 126.233 96.2158C126.612 96.6898 126.801 97.2344 126.801 97.8496C126.801 98.3828 126.66 98.8636 126.377 99.292C126.094 99.7158 125.698 100.064 125.188 100.338V103.646H127.949V104.549ZM118.953 97.8496C118.953 98.2962 119.097 98.6927 119.384 99.0391C119.671 99.3809 120.072 99.6475 120.587 99.8389C121.106 100.026 121.697 100.119 122.357 100.119C123.014 100.119 123.599 100.026 124.114 99.8389C124.629 99.6475 125.033 99.3809 125.324 99.0391C125.616 98.6927 125.762 98.2962 125.762 97.8496C125.762 97.403 125.616 97.0088 125.324 96.667C125.033 96.3252 124.629 96.0632 124.114 95.8809C123.599 95.694 123.014 95.6029 122.357 95.6074C121.697 95.6029 121.106 95.694 120.587 95.8809C120.072 96.0632 119.671 96.3252 119.384 96.667C119.097 97.0088 118.953 97.403 118.953 97.8496ZM124.107 103.646V100.755C123.565 100.896 122.982 100.967 122.357 100.967C121.729 100.967 121.154 100.898 120.635 100.762V103.646H124.107ZM130.205 105.082C130.046 105.082 129.897 105.041 129.761 104.959C129.629 104.877 129.521 104.77 129.439 104.638C129.362 104.501 129.326 104.353 129.33 104.193C129.326 104.038 129.362 103.895 129.439 103.763C129.521 103.626 129.629 103.519 129.761 103.441C129.897 103.359 130.046 103.318 130.205 103.318C130.36 103.318 130.504 103.357 130.636 103.435C130.772 103.512 130.88 103.617 130.957 103.749C131.039 103.881 131.08 104.025 131.08 104.18C131.08 104.426 130.996 104.638 130.827 104.815C130.659 104.989 130.451 105.077 130.205 105.082Z" fill="#333333"/>
<circle cx="74" cy="20" r="20" fill="#29E0BF"/>
<rect x="65" y="15" width="2" height="3" rx="1" fill="black"/>
<rect x="75" y="15" width="2" height="3" rx="1" fill="black"/>
<path d="M69.634 20.5C70.0189 19.8333 70.9811 19.8333 71.366 20.5L71.799 21.25C72.1839 21.9167 71.7028 22.75 70.933 22.75H70.067C69.2972 22.75 68.8161 21.9167 69.201 21.25L69.634 20.5Z" fill="black"/>
<ellipse cx="74" cy="53" rx="12" ry="1" fill="#DBDBDB"/>
</svg>
