<svg width="212" height="24" viewBox="0 0 212 24" fill="none" xmlns="http://www.w3.org/2000/svg">
<path d="M0 0.375734H9.20546V10.1292H16.006V0.375734H25.2274L25.2115 23.6399H16.006V13.7143H9.20546V23.6399H0V0.375734Z" fill="#121212"/>
<path d="M37.8252 6.24658L35.0859 0.375734H44.785L56.3795 23.6556H45.9795L44.2276 19.9296H34.8947L33.1588 23.6556H29.1294L37.8252 6.24658ZM42.5553 16.3444L39.5612 9.95695L36.5829 16.3444H42.5553Z" fill="#121212"/>
<path d="M59.6284 0.375734H72.1466C73.9091 0.375734 75.4487 0.521853 76.7652 0.81409C78.0924 1.10633 79.1967 1.52381 80.0779 2.06654C80.9698 2.59883 81.6387 3.24592 82.0847 4.00783C82.5306 4.7593 82.7536 5.59948 82.7536 6.52838C82.7536 7.45727 82.4881 8.33399 81.9573 9.15851C81.437 9.9726 80.6725 10.6771 79.6638 11.272C81.3202 11.7417 82.5571 12.4305 83.3747 13.3386C84.1923 14.2466 84.601 15.3581 84.601 16.6732C84.601 17.5708 84.3781 18.4371 83.9321 19.272C83.4968 20.107 82.8385 20.848 81.9573 21.4951C81.0866 22.1422 79.993 22.6641 78.6764 23.0607C77.3598 23.4468 75.8203 23.6399 74.0578 23.6399H59.6284V0.375734ZM69.8213 9.8317C70.692 9.8317 71.4246 9.75342 72.0192 9.59687C72.6138 9.42988 73.0863 9.20548 73.4366 8.92368C73.7976 8.64188 74.0525 8.31833 74.2011 7.95303C74.3604 7.58774 74.44 7.20678 74.44 6.81018C74.44 6.41357 74.3604 6.03262 74.2011 5.66732C74.0525 5.30202 73.7976 4.98369 73.4366 4.71233C73.0863 4.43053 72.6138 4.20613 72.0192 4.03914C71.4246 3.87215 70.692 3.78865 69.8213 3.78865H68.8498L68.8339 9.8317H69.8213ZM69.8213 20.227C70.7663 20.227 71.5626 20.1279 72.2103 19.9296C72.858 19.7312 73.3835 19.4599 73.787 19.1155C74.1905 18.771 74.4825 18.3692 74.663 17.91C74.8435 17.4403 74.9337 16.9393 74.9337 16.407C74.9337 15.9374 74.8382 15.4781 74.647 15.0294C74.4559 14.5806 74.1692 14.184 73.787 13.8395C73.4154 13.4847 72.9535 13.2029 72.4014 12.9941C71.8493 12.775 71.2122 12.6654 70.4902 12.6654H68.8339V20.227H69.8213Z" fill="#121212"/>
<path d="M88.9967 0.375734H98.2181L98.2022 23.6399H88.9967V0.375734Z" fill="#121212"/>
<path d="M108.443 3.94521H101.69V0.360078H124.401V3.94521H117.648V23.6399H108.443V3.94521Z" fill="#121212"/>
<path d="M127.857 0.375734H147.861V3.96086H137.079L137.063 10.2387H145.312V13.8239H137.063V20.0548H147.861V23.6399H127.857V0.375734Z" fill="#121212"/>
<path d="M152.607 0.375734H166.256C168.018 0.375734 169.558 0.558382 170.874 0.923679C172.202 1.28898 173.306 1.80039 174.187 2.45793C175.079 3.11546 175.748 3.90346 176.194 4.82192C176.64 5.74038 176.863 6.75277 176.863 7.8591C176.863 9.22635 176.534 10.4423 175.875 11.5068C175.217 12.561 174.24 13.4012 172.945 14.0274L177.914 23.6556H167.514L163.755 15.2016H161.812V23.6399H152.607V0.375734ZM162.37 12.3679C163.123 12.3679 163.798 12.2635 164.392 12.0548C164.987 11.8461 165.491 11.5538 165.905 11.1781C166.319 10.7919 166.638 10.3379 166.861 9.81605C167.084 9.28376 167.195 8.7045 167.195 8.07828C167.195 7.45205 167.084 6.87802 166.861 6.35616C166.638 5.82387 166.319 5.36986 165.905 4.99413C165.491 4.60796 164.987 4.3105 164.392 4.10176C163.798 3.89302 163.123 3.78865 162.37 3.78865H161.828L161.812 12.3679H162.37Z" fill="#121212"/>
<path d="M182.644 18.4736C183.769 19.0372 184.948 19.4599 186.18 19.7417C187.411 20.0235 188.558 20.1644 189.62 20.1644C190.841 20.1644 191.733 19.9922 192.295 19.6478C192.869 19.3033 193.155 18.8337 193.155 18.2387C193.155 18.0509 193.118 17.8578 193.044 17.6595C192.98 17.4612 192.847 17.2681 192.646 17.0802C192.455 16.8819 192.184 16.6888 191.833 16.501C191.494 16.3027 191.048 16.1096 190.496 15.9217L187.645 14.9667C185.606 14.2779 184.072 13.349 183.042 12.18C182.012 11.0007 181.497 9.60209 181.497 7.98434C181.497 6.94064 181.72 5.93868 182.166 4.97847C182.612 4.00783 183.286 3.15721 184.189 2.42661C185.091 1.68558 186.227 1.09589 187.597 0.657534C188.977 0.219178 190.591 0 192.439 0C193.352 0 194.228 0.0521853 195.067 0.156556C195.905 0.260926 196.691 0.396608 197.424 0.563601C198.167 0.730594 198.846 0.923679 199.462 1.14286C200.078 1.3516 200.62 1.56034 201.087 1.76908L199.367 4.82192C199.027 4.61318 198.666 4.43053 198.284 4.27397C197.912 4.11742 197.535 3.98695 197.153 3.88258C196.781 3.77821 196.415 3.69993 196.054 3.64775C195.693 3.59556 195.364 3.56947 195.067 3.56947C194.557 3.56947 194.111 3.63731 193.729 3.77299C193.346 3.89824 193.023 4.07045 192.757 4.28963C192.502 4.49837 192.306 4.73842 192.168 5.00978C192.041 5.27071 191.977 5.53164 191.977 5.79256C191.977 6.02218 192.03 6.24658 192.136 6.46575C192.253 6.67449 192.444 6.88324 192.709 7.09198C192.985 7.29028 193.341 7.4938 193.777 7.70254C194.222 7.90085 194.775 8.10959 195.433 8.32877L197.344 8.95499C199.414 9.6334 200.996 10.5675 202.09 11.7573C203.184 12.9472 203.73 14.3875 203.73 16.0783C203.73 17.2264 203.465 18.2857 202.934 19.2564C202.414 20.227 201.634 21.0672 200.593 21.7769C199.552 22.4762 198.257 23.0241 196.707 23.4207C195.167 23.8069 193.378 24 191.34 24C190.363 24 189.418 23.9478 188.505 23.8434C187.602 23.7495 186.716 23.6034 185.845 23.4051C184.985 23.2068 184.136 22.9563 183.297 22.6536C182.458 22.3509 181.619 21.9961 180.781 21.589L182.644 18.4736Z" fill="#121212"/>
<path d="M212 20.625C212 22.489 210.486 24 208.617 24C206.749 24 205.234 22.489 205.234 20.625C205.234 18.761 206.749 17.25 208.617 17.25C210.486 17.25 212 18.761 212 20.625Z" fill="#937CF1"/>
</svg>
