<svg width="28" height="28" viewBox="0 0 28 28" fill="none" xmlns="http://www.w3.org/2000/svg">
<path d="M27.7449 26.5056L19.2712 17.9489C20.8505 16.0504 21.8024 13.6079 21.8024 10.941C21.8024 4.89848 16.9217 0 10.9012 0C4.88069 0 0 4.89848 0 10.941C0 16.9834 4.88069 21.8819 10.9012 21.8819C13.6365 21.8819 16.1351 20.8683 18.0494 19.1974L26.5113 27.7436C26.8519 28.0855 27.4044 28.0855 27.7449 27.7436C28.085 27.4018 28.085 26.8478 27.7449 26.5056H27.7449ZM10.9012 20.1458C5.83607 20.1458 1.7298 16.0246 1.7298 10.941C1.7298 5.85735 5.83607 1.73611 10.9012 1.73611C15.9663 1.73611 20.0726 5.85735 20.0726 10.941C20.0726 16.0246 15.9663 20.1458 10.9012 20.1458Z" fill="#1E1E1E"/>
</svg>
